<svg width="343" height="96" viewBox="0 0 343 96" fill="none" xmlns="http://www.w3.org/2000/svg">
<g clip-path="url(#clip0)">
<path d="M106.4 35.6H104.6V24.6H106.4L110.1 29.6L113.8 24.6H115.6V35.6H113.8V27.2L110.6 31.4H109.5L106.3 27.2L106.4 35.6Z" fill="#58595B"/>
<path d="M120.1 35.6H118.5V24.6H120.3V32.7L126.6 24.6H128.2V35.6H126.4V27.5L120.1 35.6Z" fill="#58595B"/>
<path d="M132.8 35.6H131V24.6H132.8V29H138.8V24.6H140.6V35.6H138.8V30.5H132.8V35.6Z" fill="#58595B"/>
<path d="M145 35.6H143.5V24.6H145.3V32.7L151.6 24.6H153.2V35.6H151.4V27.5L145 35.6Z" fill="#58595B"/>
<path d="M161.5 35.8C159.8 35.8 158.3 35.3 157.2 34.2C156 33.1 155.5 31.7 155.5 30.1C155.5 28.4 156.1 27.1 157.2 26C158.4 24.9 159.8 24.4 161.5 24.4C162.7 24.4 163.7 24.7 164.6 25.1V26.8C163.7 26.2 162.7 25.9 161.5 25.9C160.3 25.9 159.3 26.3 158.5 27.1C157.7 27.9 157.3 28.8 157.3 30C157.3 31.2 157.7 32.2 158.5 32.9C159.3 33.7 160.3 34.1 161.6 34.1C162.9 34.1 164 33.8 164.9 33.1V34.8C163.8 35.5 162.7 35.8 161.5 35.8Z" fill="#58595B"/>
<path d="M166.3 26.2V24.6H175.7V26.2H171.9V35.7H170.1V26.2H166.3Z" fill="#58595B"/>
<path d="M186 35.6H177.6V24.6H185.8V26.2H179.4V29H184.6V30.6H179.4V34H186V35.6Z" fill="#58595B"/>
<path d="M189.7 35.6H188V24.6H193C194.2 24.6 195.2 24.9 195.8 25.5C196.5 26.1 196.9 26.9 196.9 27.8C196.9 28.7 196.5 29.5 195.8 30.2C195.1 30.8 194.2 31.1 193 31.1H189.8V35.6H189.7ZM189.7 26.2V29.5H192.7C193.4 29.5 193.9 29.3 194.3 29.1C194.7 28.8 194.9 28.4 194.9 27.9C194.9 27.4 194.7 27 194.3 26.7C193.9 26.4 193.4 26.3 192.7 26.3L189.7 26.2Z" fill="#58595B"/>
<path d="M204.4 35.8C202.7 35.8 201.2 35.3 200.1 34.2C198.9 33.1 198.4 31.7 198.4 30.1C198.4 28.4 199 27.1 200.1 26C201.3 24.9 202.7 24.4 204.4 24.4C205.6 24.4 206.6 24.7 207.5 25.1V26.8C206.6 26.2 205.6 25.9 204.4 25.9C203.2 25.9 202.2 26.3 201.4 27.1C200.6 27.9 200.2 28.8 200.2 30C200.2 31.2 200.6 32.2 201.4 32.9C202.2 33.7 203.2 34.1 204.5 34.1C205.8 34.1 206.9 33.8 207.8 33.1V34.8C206.8 35.5 205.7 35.8 204.4 35.8Z" fill="#58595B"/>
<path d="M209.2 26.2V24.6H218.6V26.2H214.8V35.7H213V26.2H209.2Z" fill="#58595B"/>
<path d="M226.1 35.6H220.5V24.6H225.7C226.8 24.6 227.5 24.9 228.2 25.3C228.8 25.8 229.1 26.5 229.1 27.3C229.1 27.8 228.9 28.3 228.7 28.7C228.4 29.1 228.1 29.4 227.6 29.5C228.3 29.6 228.9 30 229.3 30.5C229.7 31 230 31.7 230 32.5C230 33.4 229.6 34.2 228.9 34.8C228.3 35.3 227.4 35.6 226.1 35.6ZM222.3 26.2V29H225.4C226 29 226.5 28.9 226.8 28.6C227.1 28.3 227.3 28 227.3 27.5C227.3 27 227.1 26.7 226.8 26.4C226.5 26.1 226 26 225.4 26H222.3V26.2ZM222.3 30.5V34H225.8C226.5 34 227.1 33.8 227.4 33.5C227.8 33.2 228 32.8 228 32.2C228 31.7 227.8 31.3 227.4 30.9C227 30.6 226.5 30.5 225.8 30.5H222.3Z" fill="#58595B"/>
<path d="M241.8 34.2C240.7 35.3 239.3 35.8 237.6 35.8C235.9 35.8 234.5 35.3 233.4 34.2C232.3 33.1 231.8 31.7 231.8 30.1C231.8 28.5 232.3 27.1 233.4 26.1C234.5 25 235.9 24.4 237.6 24.4C239.3 24.4 240.7 25 241.8 26.1C242.9 27.2 243.5 28.6 243.5 30.1C243.5 31.6 242.9 33.1 241.8 34.2ZM234.8 33C235.6 33.8 236.5 34.2 237.6 34.2C238.7 34.2 239.7 33.8 240.4 33C241.2 32.2 241.6 31.2 241.6 30.1C241.6 28.9 241.2 27.9 240.4 27.2C239.6 26.4 238.7 26 237.6 26C236.5 26 235.5 26.4 234.8 27.2C234 28 233.6 28.9 233.6 30.1C233.6 31.3 234 32.2 234.8 33Z" fill="#58595B"/>
<path d="M252 35.6H250.2V24.6H252V29H258V24.6H259.8V35.6H258V30.5H252V35.6Z" fill="#58595B"/>
<path d="M263.5 35.6H261.6L266.6 24.5H268.3L273.3 35.6H271.4L270.1 32.9H264.7L263.5 35.6ZM267.5 26.7L265.4 31.3H269.6L267.5 26.7Z" fill="#58595B"/>
<path d="M276.8 35.8C276.1 35.8 275.5 35.7 275.2 35.5V33.9C275.6 34.1 276 34.2 276.5 34.2C277 34.2 277.3 34.1 277.7 33.8C278 33.6 278.3 33.1 278.7 32.3L274.2 24.5H276.3L279.7 30.5L282.5 24.5H284.4L280.2 33.2C279.3 35 278.2 35.8 276.8 35.8Z" fill="#58595B"/>
<path d="M287.9 35.6H286.1V24.6H287.9V29.1L292.6 24.6H294.9L289.6 29.6L295.8 35.6H293.4L288 30.3V35.6H287.9Z" fill="#58595B"/>
<path d="M299 35.6H297.5V24.6H299.3V32.7L305.6 24.6H307.2V35.6H305.4V27.5L299 35.6Z" fill="#58595B"/>
<path d="M106.2 54.7H104.7V43.7H106.5V51.8L112.8 43.7H114.4V54.7H112.6V46.5999L106.2 54.7Z" fill="#58595B"/>
<path d="M127.1 54.7H121.5V43.7H126.7C127.8 43.7 128.5 44 129.2 44.4C129.8 44.9 130.1 45.6 130.1 46.4C130.1 46.9 129.9 47.4 129.7 47.8C129.5 48.2 129.1 48.5 128.6 48.6C129.3 48.7 129.9 49.1 130.3 49.6C130.7 50.1 131 50.8 131 51.6C131 52.5 130.6 53.3 129.9 53.9C129.2 54.4 128.3 54.7 127.1 54.7ZM123.3 45.2V48H126.4C127 48 127.5 47.9 127.8 47.6C128.1 47.3 128.3 47 128.3 46.5C128.3 46 128.1 45.7 127.8 45.4C127.5 45.1 127 45 126.4 45H123.3V45.2ZM123.3 49.6V53.1H126.8C127.5 53.1 128.1 52.9 128.4 52.6C128.8 52.3 129 51.9 129 51.3C129 50.8 128.8 50.4 128.4 50C128 49.7 127.5 49.6 126.8 49.6H123.3Z" fill="#58595B"/>
<path d="M137.6 54.7H133.2V43.7H135V47.5H137.6C138.9 47.5 140 47.8 140.8 48.5C141.6 49.2 142 50 142 51.1C142 52.2 141.6 53 140.8 53.7C139.9 54.4 138.9 54.7 137.6 54.7ZM135 49.1V53.1H137.5C138.3 53.1 138.9 52.9 139.4 52.6C139.9 52.3 140.1 51.8 140.1 51.1C140.1 50.4 139.9 49.9 139.4 49.6C138.9 49.3 138.3 49.1 137.5 49.1H135ZM145.2 54.7H143.4V43.7H145.2V54.7Z" fill="#58595B"/>
<path d="M153.5 54.9C151.8 54.9 150.3 54.4 149.2 53.3C148 52.2 147.5 50.8 147.5 49.2C147.5 47.5 148.1 46.2 149.2 45.1C150.4 44 151.8 43.5 153.5 43.5C154.7 43.5 155.7 43.8 156.6 44.2V45.9C155.7 45.3 154.7 45 153.5 45C152.3 45 151.3 45.4 150.5 46.2C149.7 47 149.3 47.9 149.3 49.1C149.3 50.3 149.7 51.3 150.5 52C151.3 52.8 152.3 53.2 153.6 53.2C154.9 53.2 156 52.9 156.9 52.2V53.9C155.9 54.6 154.8 54.9 153.5 54.9Z" fill="#58595B"/>
<path d="M173.1 54.7H159.1V43.7H160.9V53.2H165.2V43.7H167V53.2H171.3V43.7H173.1V54.7Z" fill="#58595B"/>
<path d="M184.2 54.7H175.8V43.7H184V45.3H177.6V48H182.8V49.6H177.6V53.1H184.2V54.7Z" fill="#58595B"/>
<path d="M188 54.7H186.2V43.7H194.3V45.3H188V54.7Z" fill="#58595B"/>
<path d="M205.4 53.3C204.3 54.4 202.9 54.9 201.2 54.9C199.5 54.9 198.1 54.4 197 53.3C195.9 52.2 195.4 50.8 195.4 49.2C195.4 47.6 195.9 46.2 197 45.2C198.1 44.1 199.5 43.5 201.2 43.5C202.9 43.5 204.3 44.1 205.4 45.2C206.5 46.3 207.1 47.7 207.1 49.2C207.1 50.7 206.5 52.2 205.4 53.3ZM198.3 52.1C199.1 52.9 200 53.3 201.1 53.3C202.2 53.3 203.2 52.9 203.9 52.1C204.7 51.3 205.1 50.3 205.1 49.2C205.1 48 204.7 47 203.9 46.3C203.1 45.5 202.2 45.1 201.1 45.1C200 45.1 199 45.5 198.3 46.3C197.5 47.1 197.1 48 197.1 49.2C197.2 50.4 197.5 51.3 198.3 52.1Z" fill="#58595B"/>
<path d="M223.4 53.3C222.3 54.4 220.9 54.9 219.2 54.9C217.5 54.9 216.1 54.4 215 53.3C213.9 52.2 213.4 50.8 213.4 49.2C213.4 47.6 213.9 46.2 215 45.2C216.1 44.1 217.5 43.5 219.2 43.5C220.9 43.5 222.3 44.1 223.4 45.2C224.5 46.3 225.1 47.7 225.1 49.2C225.1 50.7 224.5 52.2 223.4 53.3ZM216.3 52.1C217.1 52.9 218 53.3 219.1 53.3C220.2 53.3 221.2 52.9 221.9 52.1C222.7 51.3 223.1 50.3 223.1 49.2C223.1 48 222.7 47 221.9 46.3C221.1 45.5 220.2 45.1 219.1 45.1C218 45.1 217 45.5 216.3 46.3C215.5 47.1 215.1 48 215.1 49.2C215.2 50.4 215.6 51.3 216.3 52.1Z" fill="#58595B"/>
<path d="M232.2 54.7H227.4V43.7H235.5V45.3H229.2V47.6H232.3C233.6 47.6 234.6 47.9 235.4 48.6C236.1 49.2 236.6 50.1 236.6 51.2C236.6 52.3 236.2 53.1 235.4 53.8C234.6 54.4 233.5 54.7 232.2 54.7ZM229.1 49.2V53.1H232C232.8 53.1 233.4 52.9 233.9 52.6C234.3 52.2 234.6 51.8 234.6 51.2C234.6 50.6 234.4 50.1 233.9 49.7C233.4 49.3 232.8 49.2 232 49.2H229.1Z" fill="#58595B"/>
<path d="M240.3 54.7H238.5V43.7H243.4C244.6 43.7 245.6 43.9999 246.2 44.5999C246.9 45.1999 247.3 46 247.3 46.9C247.3 47.8 246.9 48.6 246.2 49.3C245.5 49.9 244.6 50.2 243.4 50.2H240.2V54.7H240.3ZM240.3 45.2V48.5H243.3C244 48.5 244.5 48.3 244.9 48.1C245.3 47.9 245.5 47.4 245.5 46.9C245.5 46.4 245.3 46 244.9 45.7C244.5 45.4 244 45.3 243.3 45.3L240.3 45.2Z" fill="#58595B"/>
<path d="M249 54.7H247.1L252.1 43.6H253.8L258.8 54.7H257L255.7 52H250.3L249 54.7ZM253 45.7L250.9 50.3H255.1L253 45.7Z" fill="#58595B"/>
<path d="M264.3 54.9C262.7 54.9 261.4 54.6 260.3 54V52.3C260.8 52.6 261.4 52.9 262.1 53C262.8 53.2 263.4 53.3 264.1 53.3C265 53.3 265.8 53.1 266.4 52.8C267 52.4 267.2 52 267.2 51.4C267.2 50.9 266.9 50.5 266.4 50.1C265.9 49.8 265.2 49.6 264.3 49.6H263V48H264.6C265.3 48 265.9 47.8 266.2 47.6C266.6 47.3 266.8 47 266.8 46.5C266.8 46 266.6 45.7 266.1 45.4C265.7 45.1 265 45 264.3 45C263.1 45 261.9 45.3 260.8 45.8V44.2C261.9 43.6 263.1 43.4 264.4 43.4C265.7 43.4 266.7 43.7 267.4 44.2C268.2 44.7 268.6 45.5 268.6 46.4C268.6 47 268.4 47.5 268 47.9C267.6 48.3 267.2 48.6 266.8 48.7C267.4 48.9 267.9 49.2 268.4 49.7C268.9 50.2 269.1 50.8 269.1 51.5C269.1 52.5 268.7 53.3 267.8 54C266.8 54.6 265.7 54.9 264.3 54.9Z" fill="#58595B"/>
<path d="M280.8 53.3C279.7 54.4 278.3 54.9 276.6 54.9C274.9 54.9 273.5 54.4 272.4 53.3C271.3 52.2 270.8 50.8 270.8 49.2C270.8 47.6 271.3 46.2 272.4 45.2C273.5 44.1 274.9 43.5 276.6 43.5C278.3 43.5 279.7 44.1 280.8 45.2C281.9 46.3 282.5 47.7 282.5 49.2C282.5 50.7 281.9 52.2 280.8 53.3ZM273.7 52.1C274.5 52.9 275.4 53.3 276.5 53.3C277.6 53.3 278.6 52.9 279.3 52.1C280.1 51.3 280.5 50.3 280.5 49.2C280.5 48 280.1 47 279.3 46.3C278.5 45.6 277.6 45.1 276.5 45.1C275.4 45.1 274.4 45.5 273.7 46.3C272.9 47.1 272.5 48 272.5 49.2C272.6 50.4 273 51.3 273.7 52.1Z" fill="#58595B"/>
<path d="M290.4 54.7H284.8V43.7H290C291.1 43.7 291.8 44 292.5 44.4C293.1 44.9 293.4 45.6 293.4 46.4C293.4 46.9 293.2 47.4 293 47.8C292.7 48.2 292.4 48.5 291.9 48.6C292.6 48.7 293.2 49.1 293.6 49.6C294 50.1 294.3 50.8 294.3 51.6C294.3 52.5 293.9 53.3 293.2 53.9C292.5 54.4 291.5 54.7 290.4 54.7ZM286.5 45.2V48H289.6C290.2 48 290.7 47.9 291 47.6C291.3 47.3 291.5 47 291.5 46.5C291.5 46 291.3 45.7 291 45.4C290.7 45.1 290.2 45 289.6 45H286.5V45.2ZM286.5 49.6V53.1H290C290.7 53.1 291.3 52.9 291.6 52.6C292 52.3 292.2 51.9 292.2 51.3C292.2 50.8 292 50.4 291.6 50C291.2 49.7 290.7 49.6 290 49.6H286.5Z" fill="#58595B"/>
<path d="M297.2 54.7H295.3L300.3 43.6H302L307 54.7H305.1L303.8 52H298.4L297.2 54.7ZM301.2 45.7L299.1 50.3H303.3L301.2 45.7Z" fill="#58595B"/>
<path d="M310.7 54.7H308.9V43.7H310.7V48H316.7V43.6H318.5V54.6H316.7V49.5H310.7V54.7Z" fill="#58595B"/>
<path d="M322.8 54.7H321.3V43.7H323.1V51.8L329.4 43.7H331V54.7H329.2V46.5999L322.8 54.7Z" fill="#58595B"/>
<path d="M335 54.6999H332.8L336.5 49.8999C335.7 49.6999 335.1 49.3999 334.6 48.7999C334.1 48.2999 333.9 47.5999 333.9 46.8999C333.9 45.9999 334.2 45.1999 334.9 44.5999C335.6 43.9999 336.5 43.7999 337.7 43.7999H342.9V54.7999H341.1V49.9999H338.4L335 54.6999ZM337.8 48.4999H341.2V45.1999H337.8C337.2 45.1999 336.6 45.3999 336.3 45.5999C335.9 45.8999 335.8 46.2999 335.8 46.7999C335.8 47.2999 336 47.6999 336.3 47.9999C336.7 48.2999 337.2 48.4999 337.8 48.4999Z" fill="#58595B"/>
<path d="M106.4 73.8H104.6V62.8H109.6C110.8 62.8 111.8 63.1 112.4 63.7C113.1 64.3 113.5 65.1 113.5 66C113.5 66.9 113.1 67.7 112.4 68.4C111.7 69 110.8 69.3 109.6 69.3H106.4V73.8ZM106.4 64.3V67.6H109.4C110.1 67.6 110.6 67.4 111 67.2C111.4 66.9 111.6 66.5 111.6 66C111.6 65.5 111.4 65.1 111 64.8C110.6 64.5 110.1 64.4 109.4 64.4L106.4 64.3Z" fill="#58595B"/>
<path d="M125.1 72.2999C124 73.3999 122.6 73.8999 120.9 73.8999C119.2 73.8999 117.8 73.3999 116.7 72.2999C115.6 71.1999 115.1 69.7999 115.1 68.1999C115.1 66.5999 115.6 65.1999 116.7 64.1999C117.8 63.0999 119.2 62.4999 120.9 62.4999C122.6 62.4999 124 63.0999 125.1 64.1999C126.2 65.2999 126.8 66.6999 126.8 68.1999C126.8 69.7999 126.2 71.1999 125.1 72.2999ZM118.1 71.0999C118.9 71.8999 119.8 72.2999 120.9 72.2999C122 72.2999 123 71.8999 123.7 71.0999C124.5 70.2999 124.9 69.2999 124.9 68.1999C124.9 67.0999 124.5 65.9999 123.7 65.2999C122.9 64.4999 122 64.0999 120.9 64.0999C119.8 64.0999 118.8 64.4999 118.1 65.2999C117.3 66.0999 116.9 66.9999 116.9 68.1999C116.9 69.3999 117.3 70.3999 118.1 71.0999Z" fill="#58595B"/>
<path d="M134.8 74C133.1 74 131.6 73.5 130.5 72.4C129.3 71.3 128.8 69.9 128.8 68.3C128.8 66.6 129.4 65.3 130.5 64.2C131.7 63.1 133.1 62.6 134.8 62.6C136 62.6 137 62.9 137.9 63.3V65C137 64.4 136 64.1 134.8 64.1C133.6 64.1 132.6 64.5 131.8 65.3C131 66.1 130.6 67 130.6 68.2C130.6 69.4 131 70.4 131.8 71.1C132.6 71.9 133.6 72.3 134.9 72.3C136.2 72.3 137.3 72 138.2 71.3V73C137.2 73.7 136.1 74 134.8 74Z" fill="#58595B"/>
<path d="M145.7 74C144 74 142.5 73.5 141.4 72.4C140.2 71.3 139.7 69.9 139.7 68.3C139.7 66.6 140.3 65.3 141.4 64.2C142.6 63.1 144 62.6 145.7 62.6C146.9 62.6 147.9 62.9 148.8 63.3V65C147.9 64.4 146.9 64.1 145.7 64.1C144.5 64.1 143.5 64.5 142.7 65.3C141.9 66.1 141.5 67 141.5 68.2C141.5 69.4 141.9 70.4 142.7 71.1C143.5 71.9 144.5 72.3 145.8 72.3C147.1 72.3 148.2 72 149.1 71.3V73C148 73.7 146.9 74 145.7 74Z" fill="#58595B"/>
<path d="M152.7 73.8H151.2V62.8H153V70.9L159.3 62.8H160.9V73.8H159.1V65.7L152.7 73.8Z" fill="#58595B"/>
<path d="M165.2 73.8H163.7V62.8H165.5V70.9L171.8 62.8H173.4V73.8H171.6V65.7L165.2 73.8ZM168.5 62C167.7 62 166.9 61.7 166.4 61.3C165.9 60.8 165.6 60.2 165.6 59.4H167.1C167.1 59.8 167.2 60.1 167.5 60.3C167.8 60.6 168.1 60.7 168.5 60.7C168.9 60.7 169.3 60.6 169.5 60.3C169.8 60 169.9 59.7 169.9 59.4H171.4C171.4 60.2 171.1 60.8 170.6 61.3C170.1 61.8 169.4 62 168.5 62Z" fill="#58595B"/>
<path d="M181.7 74C180 74 178.5 73.5 177.4 72.4C176.2 71.3 175.7 69.9 175.7 68.3C175.7 66.6 176.3 65.3 177.4 64.2C178.6 63.1 180 62.6 181.7 62.6C182.9 62.6 183.9 62.9 184.8 63.3V65C183.9 64.4 182.9 64.1 181.7 64.1C180.5 64.1 179.5 64.5 178.7 65.3C177.9 66.1 177.5 67 177.5 68.2C177.5 69.4 177.9 70.4 178.7 71.1C179.5 71.9 180.5 72.3 181.8 72.3C183.1 72.3 184.2 72 185.1 71.3V73C184.1 73.7 183 74 181.7 74Z" fill="#58595B"/>
<path d="M189.1 73.8H187.3V62.8H189.1V67.3L193.8 62.8H196.1L190.8 67.8L197 73.8H194.5L189.1 68.5V73.8Z" fill="#58595B"/>
<path d="M207.1 72.2999C206 73.3999 204.6 73.8999 202.9 73.8999C201.2 73.8999 199.8 73.3999 198.7 72.2999C197.6 71.1999 197.1 69.7999 197.1 68.1999C197.1 66.5999 197.6 65.1999 198.7 64.1999C199.8 63.0999 201.2 62.4999 202.9 62.4999C204.6 62.4999 206 63.0999 207.1 64.1999C208.2 65.2999 208.8 66.6999 208.8 68.1999C208.7 69.7999 208.2 71.1999 207.1 72.2999ZM200 71.0999C200.8 71.8999 201.7 72.2999 202.8 72.2999C203.9 72.2999 204.9 71.8999 205.6 71.0999C206.4 70.2999 206.8 69.2999 206.8 68.1999C206.8 67.0999 206.4 65.9999 205.6 65.2999C204.8 64.4999 203.9 64.0999 202.8 64.0999C201.7 64.0999 200.7 64.4999 200 65.2999C199.2 66.0999 198.8 66.9999 198.8 68.1999C198.9 69.3999 199.2 70.3999 200 71.0999Z" fill="#58595B"/>
<path d="M212.6 73.8H211V62.8H212.8V70.9L219.1 62.8H220.7V73.8H218.9V65.7L212.6 73.8ZM215.8 62C215 62 214.2 61.7 213.7 61.3C213.2 60.8 212.9 60.2 212.9 59.4H214.4C214.4 59.8 214.5 60.1 214.8 60.3C215.1 60.6 215.4 60.7 215.8 60.7C216.2 60.7 216.6 60.6 216.8 60.3C217.1 60 217.2 59.7 217.2 59.4H218.7C218.7 60.2 218.4 60.8 217.9 61.3C217.3 61.8 216.7 62 215.8 62Z" fill="#58595B"/>
<path d="M234.8 74.0999H233V72.8999C231.2 72.7999 229.8 72.3999 228.8 71.4999C227.9 70.5999 227.4 69.4999 227.4 68.1999C227.4 67.5999 227.5 66.9999 227.8 66.4999C228 65.8999 228.4 65.3999 228.8 64.9999C229.2 64.4999 229.9 64.1999 230.6 63.8999C231.3 63.5999 232.2 63.4999 233.1 63.3999V62.2999H234.9V63.3999C235.8 63.3999 236.6 63.5999 237.4 63.7999C238.1 64.0999 238.7 64.3999 239.2 64.8999C239.7 65.3999 240 65.7999 240.2 66.3999C240.4 66.9999 240.6 67.5999 240.6 68.0999C240.6 68.5999 240.5 69.2999 240.2 69.7999C239.9 70.2999 239.6 70.8999 239.2 71.2999C238.7 71.7999 238.1 72.0999 237.4 72.3999C236.7 72.6999 235.8 72.7999 234.9 72.7999L234.8 74.0999ZM233 71.3999V64.8999C231.8 64.8999 230.8 65.1999 230.2 65.7999C229.6 66.3999 229.3 67.1999 229.3 68.0999C229.3 68.9999 229.6 69.7999 230.2 70.3999C230.8 70.9999 231.8 71.2999 233 71.3999ZM234.8 64.8999V71.3999C236.1 71.3999 237 71.0999 237.6 70.4999C238.2 69.8999 238.5 69.0999 238.5 68.1999C238.5 67.2999 238.2 66.4999 237.6 65.8999C237 65.1999 236 64.8999 234.8 64.8999Z" fill="#58595B"/>
<path d="M250.9 73.8H242.5V62.8H250.7V64.4H244.3V67.2H249.5V68.8H244.3V72.3H250.9V73.8Z" fill="#58595B"/>
<path d="M254.1 76.1H252.4V72.2H253.5C254.1 71.3 254.6 70.3 254.8 69.1C255.1 67.9 255.2 66.3 255.2 64.3V62.8H262.8V72.3H264.4V76.2H262.7V73.8H254L254.1 76.1ZM255.4 72.1H261V64.2H256.9C256.9 66 256.8 67.6 256.5 68.8C256.4 70.2 256 71.3 255.4 72.1Z" fill="#58595B"/>
<path d="M274.7 73.8H266.3V62.8H274.5V64.4H268.1V67.2H273.3V68.8H268.1V72.3H274.7V73.8Z" fill="#58595B"/>
<path d="M278.5 73.8H276.7V62.8H281.7C282.9 62.8 283.9 63.1 284.5 63.7C285.2 64.3 285.6 65.1 285.6 66C285.6 66.9 285.2 67.7 284.5 68.4C283.8 69 282.9 69.3 281.7 69.3H278.5V73.8ZM278.5 64.3V67.6H281.5C282.2 67.6 282.7 67.4 283.1 67.2C283.5 66.9 283.7 66.5 283.7 66C283.7 65.5 283.5 65.1 283.1 64.8C282.7 64.5 282.2 64.4 281.5 64.4L278.5 64.3Z" fill="#58595B"/>
<path d="M287.2 73.8H285.3L290.3 62.7H292L297 73.8H295.1L293.8 71.1H288.4L287.2 73.8ZM291.2 64.8L289.1 69.4H293.3L291.2 64.8Z" fill="#58595B"/>
<path d="M309.8 76.0999H308.1V73.6999H298.9V62.7H300.7V72.1999H306.3V62.7H308.1V72.1999H309.7V76.0999H309.8Z" fill="#58595B"/>
<path d="M313.2 73.8H311.7V62.8H313.5V70.9L319.8 62.8H321.4V73.8H319.6V65.7L313.2 73.8Z" fill="#58595B"/>
<path d="M325.7 73.8H324.2V62.8H326V70.9L332.3 62.8H333.9V73.8H332.1V65.7L325.7 73.8Z" fill="#58595B"/>
<path d="M67.5 71.6C67.2 71.6 67 71.8 67 72.1C67 72.4 67.2 72.6 67.5 72.6C67.8 72.6 68 72.4 68 72.1C68 71.9 67.8 71.6 67.5 71.6Z" fill="#13377D"/>
<path d="M69.2002 76.5C69.2002 76.8 69.4002 77 69.7002 77C70.0002 77 70.2002 76.8 70.2002 76.5C70.2002 76.2 70.0002 76 69.7002 76C69.4002 76 69.2002 76.2 69.2002 76.5Z" fill="#13377D"/>
<path d="M67.5 76C67.2 76 67 76.2 67 76.5C67 76.8 67.2 77 67.5 77C67.8 77 68 76.8 68 76.5C68 76.2 67.8 76 67.5 76Z" fill="#13377D"/>
<path d="M71.3999 76.5C71.3999 76.8 71.5999 77 71.8999 77C72.1999 77 72.3999 76.8 72.3999 76.5C72.3999 76.2 72.1999 76 71.8999 76C71.5999 76 71.3999 76.2 71.3999 76.5Z" fill="#13377D"/>
<path d="M66.7998 66.7L66.8998 68L65.7998 67.9V69.3L66.8998 69.1L66.7998 70.4H68.1998L68.0998 69.1L69.1998 69.3V67.9L68.0998 68L68.1998 66.7H66.7998Z" fill="#13377D"/>
<path d="M68.3999 71.2V75.7H72.6999C72.3999 73.4 70.5999 71.6 68.3999 71.2Z" fill="#13377D"/>
<path d="M67.5 73.8C67.2 73.8 67 74 67 74.3C67 74.6 67.2 74.8 67.5 74.8C67.8 74.8 68 74.6 68 74.3C68 74 67.8 73.8 67.5 73.8Z" fill="#13377D"/>
<path d="M69.3002 79.5C69.2002 79.5 68.8002 80.6 69.2002 81.4C69.4002 81.8 69.8002 82 70.2002 81.9C70.6002 81.8 70.7002 81.4 70.7002 81.2C70.6002 80.3 69.9002 79.5 69.3002 79.5Z" fill="#13377D"/>
<path d="M65.6999 79.5C65.0999 79.5 64.3999 80.3 64.3999 81.2C64.3999 81.5 64.4999 81.8 64.8999 81.9C65.2999 82 65.6999 81.8 65.8999 81.4C66.0999 80.6 65.7999 79.5 65.6999 79.5Z" fill="#13377D"/>
<path d="M67.4998 78.9C67.0998 78.9 65.8998 81.2 66.7998 82.3C66.9998 82.5 67.1998 82.6 67.4998 82.6C67.7998 82.6 68.0998 82.5 68.1998 82.3C68.9998 81.2 67.8998 78.9 67.4998 78.9Z" fill="#13377D"/>
<path d="M62.1999 76.5C62.1999 76 62.2999 75.6 62.2999 75.6H66.5999V75.2V72V71.1C64.4999 71.5 62.7999 73.1 62.2999 75.2C62.1999 75.4 61.7999 75.5 61.4999 75.4C59.8999 75.2 56.6999 74.6 56.6999 73.9C56.6999 72.9 57.3999 72.5 57.9999 72.5C58.8999 72.5 59.8999 73 60.6999 71.8C57.7999 71.9 59.9999 67.7 57.5999 66.9C57.6999 68 57.5999 69.9 57.1999 70.9C57.1999 70.9 56.2999 70 55.3999 69.6C55.4999 70.4 55.2999 72 54.9999 72.8C54.9999 72.8 53.9999 71.8 52.8999 71.5C53.8999 72.9 53.8999 75 53.5999 76.2C53.4999 76.6 53.7999 77 54.4999 77C55.6999 76.9 59.6999 77.1 61.3999 77.8C61.8999 78 62.3999 78.3 62.5999 78.7C62.7999 79.2 63.1999 80 63.7999 80.4C64.0999 79.5 65.0999 78.5 65.7999 78.6C65.9999 78.6 66.1999 79 66.2999 79.3C66.3999 79 66.8999 78.1 67.3999 78.1C67.8999 78.1 68.3999 78.8 68.5999 79.4C68.6999 79 68.8999 78.6 69.0999 78.6C69.7999 78.6 70.6999 79.2 70.9999 80.3C71.2999 80 72.4999 78.4 72.5999 77.3H62.1999C62.1999 77.4 62.1999 77 62.1999 76.5Z" fill="#13377D"/>
<path d="M64.7998 76.5C64.7998 76.8 64.9998 77 65.2998 77C65.5998 77 65.7998 76.8 65.7998 76.5C65.7998 76.2 65.5998 76 65.2998 76C64.9998 76 64.7998 76.2 64.7998 76.5Z" fill="#13377D"/>
<path d="M62.7002 76.5C62.7002 76.8 62.9002 77 63.2002 77C63.5002 77 63.7002 76.8 63.7002 76.5C63.7002 76.2 63.5002 76 63.2002 76C62.9002 76 62.7002 76.2 62.7002 76.5Z" fill="#13377D"/>
<path d="M21.3002 78.7C21.1002 78.9 20.7002 80 20.9002 80.7C21.0002 81 21.1002 81.1 21.4002 81.1C21.7002 81.1 21.8002 80.9 21.9002 80.6C22.0002 79.9 21.5002 78.8 21.3002 78.7Z" fill="#13377D"/>
<path d="M24.9999 81.8C24.7999 82.1 24.4999 82.2 24.3999 82.3C24.4999 82.4 24.7999 82.6 25.0999 82.6C25.2999 82.6 25.4999 82.5 25.5999 82.4C25.8999 81.8 25.5999 81.3 25.4999 81.1C25.3999 81.3 25.2999 81.6 24.9999 81.8Z" fill="#13377D"/>
<path d="M23.5999 80.4C23.9999 80 24.0999 79.7 23.9999 79.5C23.8999 79.2 22.9999 78.3 21.9999 77.2C21.9999 77.4 21.8999 77.6 21.8999 77.8C22.5999 78.8 22.8999 79.8 22.6999 80.7C22.7999 80.8 22.7999 80.8 22.8999 80.8C23.0999 81 23.3999 80.7 23.5999 80.4Z" fill="#13377D"/>
<path d="M24.9998 80.5C24.9998 80.3 24.9998 80.2 24.8998 80.1H24.7998C24.6998 80.1 24.5998 80.3 24.4998 80.4C24.3998 80.5 24.2998 80.7 24.0998 80.9C23.8998 81.1 23.7998 81.2 23.5998 81.4C23.3998 81.5 23.2998 81.7 23.2998 81.8C23.2998 81.8 23.2998 81.8 23.2998 81.9C23.3998 82 23.3998 82 23.4998 82C23.5998 82 23.8998 81.9 24.3998 81.4C24.8998 80.9 24.9998 80.7 24.9998 80.5Z" fill="#13377D"/>
<path d="M18.4002 75.2C18.4002 75.2 18.3002 75.3 18.2002 75.5C18.4002 75.5 18.7002 75.5 18.9002 75.6C18.9002 75.4 18.9002 75.1 18.9002 74.9C18.7002 74.9 18.5002 75.1 18.4002 75.2Z" fill="#13377D"/>
<path d="M21.0999 75.5C21.0999 75.5 23.1999 77.3 23.8999 78C24.0999 78.2 24.2999 78.2 24.4999 78.1C24.5999 78 24.7999 78 24.9999 77.9C27.0999 77.2 30.4999 77.1 31.6999 77.1C32.4999 77.1 32.6999 76.7 32.5999 76.3C32.3999 75.1 32.2999 73 33.2999 71.6C32.1999 72 31.1999 72.9 31.1999 72.9C30.7999 72.2 30.6999 70.5 30.7999 69.7C29.7999 70 28.9999 71 28.9999 71C28.5999 70 28.4999 68.1 28.5999 67C26.1999 67.8 28.3999 72.1 25.4999 71.9C26.2999 73.1 27.2999 72.6 28.1999 72.6C28.7999 72.6 29.5999 73 29.4999 74C29.3999 74.7 25.4999 75.5 23.8999 75.5C22.7999 75.5 21.9999 75.2 21.4999 74.4C21.1999 74 20.9999 73.9 20.6999 73.9C20.2999 74 19.8999 74.3 19.8999 75.3C19.8999 75.9 20.1999 77.3 20.8999 77.3C21.2999 77.4 21.2999 76.2 21.0999 75.5Z" fill="#13377D"/>
<path d="M17.1002 74.9C17.2002 74.9 17.3002 74.9 17.4002 74.9C17.1002 75.3 17.1002 75.6 17.2002 75.7C17.4002 75.9 17.5002 75.5 18.0002 75C18.5002 74.5 18.8002 74.3 18.7002 74.1C18.6002 74 18.3002 74.0001 17.9002 74.3C17.9002 74.2 18.0002 74.1 17.9002 74C17.7002 73.5 17.0002 72.9 16.5002 72.9C16.4002 72.9 16.4002 72.9 16.3002 72.9C16.5002 72.6 16.4002 72.4 16.3002 72.2C16.2002 72.1 16.1002 72.2 15.9002 72.4C15.9002 72.3 15.9002 72.1 15.8002 71.9C15.2002 70.9 11.8002 67.7 11.0002 67.4C10.5002 67.2 10.4002 67.5 10.4002 67.5C10.4002 67.5 10.1002 67.7 10.3002 68.1C10.6002 68.9 13.9002 72.2001 14.8002 72.8001C15.0002 72.9001 15.2002 73 15.3002 72.9C15.1002 73.1 15.0002 73.1 15.2002 73.3001C15.3002 73.4001 15.5002 73.5001 15.8002 73.3001C15.8002 73.4001 15.8002 73.4 15.8002 73.5C16.0002 73.9 16.6002 74.7 17.1002 74.9Z" fill="#13377D"/>
<path d="M19.5 77.3C19.5 77 18.9 76.4 18.1 76.4C17 76.4 16.5 77.1 16.5 77.5C16.5 78.2 17.2 78.3 17.4 78.3C18.1 78.3 19.4 77.5 19.5 77.3Z" fill="#13377D"/>
<path d="M18.5001 79C18.2001 79.4 18.1001 79.8 18.2001 80.1C18.3001 80.5 18.7001 80.7 19.1001 80.7C19.5001 80.7 19.9001 80.5 20.1001 80.2C20.5001 79.5 20.5001 78 20.4001 77.9C20.0001 77.9 19.0001 78.3 18.5001 79Z" fill="#13377D"/>
<path d="M8.70021 63.4C8.40021 63.1 7.70021 63.6 7.30021 63.3C7.50021 62.3 8.20021 63.3 8.80021 62.7C9.10021 62.4 8.90021 62 8.80021 61.9C8.50021 62.2 8.10021 62.1 8.00021 61.9C8.70021 60.1 7.30021 58.2 5.90021 58.4C6.20021 58.8 6.30021 60.1 6.10021 60.4C6.60021 60.8 6.30021 61.7 5.70021 61.4C5.30021 61.2 4.60021 60.2 5.40021 59.6C5.40021 59.3 4.90021 59.3 4.50021 59.9C4.80021 58.8 2.70021 59.1 2.30021 59.4C2.10021 59.9 1.80021 62 2.90021 61.6C2.30021 62.1 2.40021 62.6 2.60021 62.6C3.30021 61.8 4.20021 62.4 4.40021 62.8C4.70021 63.4 3.80021 63.8 3.40021 63.3C3.10021 63.4 1.80021 63.4 1.50021 63.1C1.30021 64.5 3.30021 66 5.00021 65.2C5.20021 65.2 5.30021 65.7 5.00021 66C5.10021 66.2 5.60021 66.3 5.80021 66C6.50021 65.3 5.50021 64.6 6.40021 64.4C6.60021 64.8 6.20021 65.5 6.50021 65.8C7.00021 66.3 7.60021 65.3 8.30021 65.3C8.30021 64.5 9.20021 63.9 8.70021 63.4ZM3.50021 61.1C3.50021 61.1 3.20021 60.9 3.60021 60.4C4.00021 60 4.20021 60.3 4.20021 60.3C4.20021 60.3 4.60021 61.1 4.70021 61.5C4.30021 61.5 3.50021 61.1 3.50021 61.1ZM6.70021 63.6C6.50021 63.6 6.00021 64.1 5.80021 63.8L4.70021 62.7L5.30021 62.1L5.90021 61.5L7.00021 62.6C7.10021 62.9 6.70021 63.4 6.70021 63.6Z" fill="#13377D"/>
<path d="M9.0001 65.4C8.9001 65.4 8.8001 65.4 8.7001 65.5C8.6001 65.6 8.6001 65.8 8.6001 66C8.6001 66.2 8.8001 66.4 9.0001 66.6C9.1001 66.9 9.4001 67 9.6001 67C9.7001 67 9.8001 67 9.9001 66.9C10.1001 66.7 10.0001 66.1 9.7001 65.8C9.5001 65.6 9.2001 65.4 9.0001 65.4Z" fill="#13377D"/>
<path d="M5.8002 62.1L5.5002 62.4L5.2002 62.7C5.2002 62.7 5.8002 63.5 6.3002 63.2C6.6002 62.7 5.8002 62.1 5.8002 62.1Z" fill="#13377D"/>
<path d="M64.2002 59.1C64.2002 59.3 63.4002 59.7 62.8002 58.6C62.2002 58.5 61.6002 58.3 61.2002 58.1C61.9002 59.5 62.5002 60.7 63.5002 61.3C65.0002 62.2 67.3002 62 68.0002 61C66.7002 60.3 65.2002 58.5 64.4002 56.8C64.2002 57.2 63.9002 57.9 63.7002 58.4C63.8002 58.6 64.0002 58.9 64.2002 59.1Z" fill="#13377D"/>
<path d="M78.0998 37.2C79.6998 36.5 81.9998 34.9 83.0998 33.9C83.1998 34.1 83.5998 35 82.3998 36C81.4998 36.7 79.6998 37.6 78.3998 38.1C77.7998 39 76.5998 40 74.9998 41.1C78.1998 40.6 81.9998 39.3 83.8998 37.5C87.3998 34 85.5998 29.8 85.0998 28.8C82.7998 31.7 78.3998 34.7 74.2998 36.3C75.6998 36.5 77.0998 36.8 78.0998 37.2Z" fill="#13377D"/>
<path d="M75.4998 30.8C77.5998 29.1 79.7998 25.7 80.1998 24.5C80.6998 24.8 80.8998 25.8 80.2998 26.9C79.1998 28.8 77.1998 30.5 75.4998 31.9C75.3998 33.1 74.8998 34.6 74.2998 35.7C76.7998 34 79.6998 31.5 80.9998 29.8C82.6998 27.6 83.3998 25.4 83.0998 23.2C83.1998 20.7 81.3998 18.2 80.6998 17.6C80.1998 20.3 77.4998 24.9 75.0998 27.5C75.2998 28.4 75.4998 29.7 75.4998 30.8Z" fill="#13377D"/>
<path d="M73.8999 46.6C74.3999 47.2 74.8999 47.9 75.2999 48.5C77.1999 48.9 79.4999 48.8 79.4999 48.8C79.4999 48.8 79.3999 49.8 78.0999 49.9C77.4999 49.9 75.6999 49.6 74.9999 49.4C74.6999 49.5 73.2999 49.9 71.8999 50.1C73.8999 50.8 76.7999 51.5 78.5999 51.5C78.7999 51.5 78.8999 51.5 79.0999 51.5C81.9999 51.2 83.4999 48.5 83.5999 47C82.6999 47.2 81.1999 47.3 79.6999 47.3C78.2999 47.3 75.7999 47.2 73.8999 46.6Z" fill="#13377D"/>
<path d="M86.0001 39C83.4001 40.4 78.8001 41.8 75.1001 41.8C76.0001 42.4 76.9001 43 77.5001 43.6C79.0001 43.5 81.1001 43 82.3001 42.6C82.3001 42.8 82.3001 43.8 80.9001 44.2C79.9001 44.5 78.5001 44.5 77.4001 44.5C76.5001 45.1 75.2001 45.6 74.1001 46C75.1001 46.1 76.4001 46.2 77.5001 46.2C79.4001 46.2 81.2001 46 82.3001 45.6C83.3001 45.3 86.6001 43.9 86.0001 39Z" fill="#13377D"/>
<path d="M71.9999 52.8C73.0999 53.3 74.2999 53.7 75.2999 53.8C75.2999 53.8 75.0999 54.8 73.5999 54.6C72.6999 54.5 71.6999 53.8 71.4999 53.7C70.7999 53.8 69.3999 53.8 68.8999 53.7C70.5999 54.9 73.1999 56.3 75.3999 56.5C75.4999 56.5 75.5999 56.5 75.6999 56.5C77.9999 56.5 79.7999 54.2 80.2999 53.1C77.9999 53.1 73.9999 52.1 71.5999 50.8C71.6999 51.2 71.8999 52 71.9999 52.8Z" fill="#13377D"/>
<path d="M67.9999 55.9C68.5999 56.6 69.5999 57 69.5999 57C69.5999 57 69.2999 57.5 68.6999 57.5C68.4999 57.5 68.2999 57.4 68.0999 57.3C67.6999 57.1 67.0999 56.4 67.0999 56.4C66.2999 56.3 65.5999 56.2 64.8999 56C66.0999 57.5 68.0999 59.4 70.2999 59.9C70.5999 60 70.8999 60 71.2999 60C73.1999 60 74.7999 58.6 75.1999 57.7C72.9999 57.4 69.7999 55.7 68.1999 54.1C68.1999 54.7 68.0999 55.4 67.9999 55.9Z" fill="#13377D"/>
<path d="M53.7 80.4C54.8 80.4 55.5 80 56 78.9C54.5 79.6 52.9 79.2 49.9 78.3C49.9 78.3 48.8 78.8 48.1 78.9C49.9 79.4 52.5 80.3 52.9 81.3C53.1 82.1 52.6 82.3 52.6 82.3C51.6 81.1 50.4 80.4 47.8 79.6C47.8 80.1 47.7 80.4 47.7 80.4C47.7 80.4 47.2 80.5 46 80.3C47 81.1 49.4 83.2 49.7 85.4C49.9 86.9 48.8 87 48.8 87C48.7 84.7 47.7 83.3 45.5 81C45.5 81 45.1 81.5 44.7 81.8C44.7 81.8 43.9 81.7 43.3 81.2C43.6 84.2 43.7 91.4 43.5 92.5C43.4 93.3 42.9 93.7 42.9 93.7C42.9 93.7 42.4 93.4 42.3 92.5C42.1 91.3 42.3 84.1 42.5 81.2C41.8 81.6 41.1 81.8 41.1 81.8C40.6 81.5 40.3 81 40.3 81C38.2 83.3 37.2 84.8 37 87C37 87 36 86.9 36.1 85.4C36.4 83.2 38.8 81.1 39.8 80.3C38.7 80.5 38.1 80.4 38.1 80.4C38.1 80.4 38 80.1 38 79.6C35.4 80.4 34.3 81.1 33.2 82.3C33.2 82.3 32.7 82.2 32.9 81.3C33.3 80.3 35.9 79.5 37.7 78.9C37.1 78.8 35.9 78.3 35.9 78.3C33 79.2 31.3 79.6 29.8 78.9C30.2 80 31 80.4 32.1 80.4C30.7 80.9 29.4 82.3 29 83.7C30 87.4 33.2 88.5 33.2 88.5C32.4 86.7 32.7 83.2 37.5 80.8C34.6 83.7 33.4 86.4 34.2 88.9C34.9 91.2 37.3 92.1 39 92.2C37.8 88.4 38.3 84.9 40.9 82.2C39.8 85.2 38.2 94.5 42.7 96C47.2 94.5 45.6 85.2 44.5 82.2C47.1 85 47.6 88.4 46.4 92.2C48.2 92.2 50.5 91.2 51.2 88.9C52 86.4 50.9 83.7 47.9 80.8C52.7 83.2 53 86.8 52.2 88.5C52.2 88.5 55.4 87.4 56.4 83.7C56.4 82.3 55 81 53.7 80.4Z" fill="#13377D"/>
<path d="M22.7002 61.3C23.7002 60.7 24.3002 59.5 25.0002 58.1C24.6002 58.3 24.0002 58.5 23.4002 58.6C22.8002 59.7 22.0002 59.3 22.0002 59.1C22.2002 58.9 22.4002 58.6 22.5002 58.4C22.3002 57.9 22.0002 57.2 21.8002 56.8C21.0002 58.6 19.4002 60.3 18.2002 61C18.9002 62 21.2002 62.2 22.7002 61.3Z" fill="#13377D"/>
<path d="M11.1 41.1C9.39998 40 8.29998 39 7.69998 38.1C6.29998 37.6 4.49998 36.7 3.69998 36C2.49998 35 2.89998 34.1 2.99998 33.9C3.99998 35 6.29998 36.5 7.99998 37.2C8.99998 36.8 10.4 36.5 11.8 36.3C7.69998 34.8 3.29998 31.7 0.999976 28.9C0.499976 29.8 -1.40002 34.1 2.19998 37.6C3.99998 39.3 7.89998 40.6 11.1 41.1Z" fill="#13377D"/>
<path d="M11.8002 35.6C11.2002 34.5 10.7002 33.1 10.6002 31.8C8.90021 30.5 7.00021 28.8 5.80021 26.8C5.20021 25.7 5.40021 24.7 5.90021 24.4C6.30021 25.6 8.50021 29 10.6002 30.7C10.6002 29.6 10.8002 28.3 11.1002 27.4C8.70021 24.8 5.90021 20.2 5.50021 17.5C4.80021 18.1 3.00021 20.6 3.10021 23.1C2.80021 25.3 3.50021 27.5 5.20021 29.7C6.40021 31.4 9.30021 34 11.8002 35.6Z" fill="#13377D"/>
<path d="M10.8001 48.5C11.1001 47.9 11.7001 47.2 12.2001 46.6C10.3001 47.1 7.8001 47.2 6.5001 47.2C4.9001 47.2 3.4001 47.1 2.6001 46.9C2.7001 48.5 4.2001 51.2 7.1001 51.4C7.3001 51.4 7.4001 51.4 7.6001 51.4C9.4001 51.4 12.3001 50.7 14.3001 50C12.9001 49.8 11.5001 49.5 11.2001 49.3C10.4001 49.7 8.6001 50 8.0001 49.9C6.7001 49.8 6.6001 48.8 6.6001 48.8C6.6001 48.8 8.9001 48.9 10.8001 48.5Z" fill="#13377D"/>
<path d="M3.80018 45.7C4.90018 46.1 6.60018 46.3 8.60018 46.3C9.80018 46.3 11.0002 46.2 12.0002 46.1C10.9002 45.7 9.60018 45.2 8.70018 44.6C7.60018 44.6 6.10018 44.5 5.20018 44.3C3.80018 43.9 3.80018 42.9 3.80018 42.7C5.00018 43.2 7.10018 43.7 8.60018 43.7C9.20018 43.2 10.0002 42.5 11.0002 41.9C7.40018 41.9 2.70018 40.5 0.100181 39.1C-0.499819 43.9 2.80018 45.3 3.80018 45.7Z" fill="#13377D"/>
<path d="M10.4999 56.4C10.5999 56.4 10.6999 56.4 10.7999 56.4C12.9999 56.2 15.5999 54.8 17.2999 53.6C16.7999 53.7 15.2999 53.7 14.6999 53.6C14.4999 53.8 13.3999 54.4 12.5999 54.5C10.9999 54.7 10.8999 53.7 10.8999 53.7C11.8999 53.6 13.0999 53.2 14.1999 52.7C14.2999 51.9 14.4999 51.1 14.6999 50.6C12.1999 52 8.1999 53 5.8999 53C6.3999 54.1 8.1999 56.4 10.4999 56.4Z" fill="#13377D"/>
<path d="M14.7999 60C15.0999 60 15.4999 60 15.7999 59.9C17.8999 59.4 19.9999 57.5 21.1999 56C20.4999 56.2 19.7999 56.4 18.9999 56.4C18.9999 56.4 18.4999 57 17.9999 57.3C17.7999 57.4 17.5999 57.5 17.3999 57.5C16.7999 57.5 16.4999 57 16.4999 57C16.4999 57 17.4999 56.5 18.0999 55.9C17.9999 55.4 17.8999 54.7 17.8999 54.1C16.1999 55.8 13.0999 57.4 10.8999 57.7C11.2999 58.6 12.7999 60 14.7999 60Z" fill="#13377D"/>
<path d="M42.2002 5.29998C42.2002 5.79998 42.6002 6.09998 43.0002 6.09998C43.4002 6.09998 43.8002 5.69998 43.8002 5.29998C43.8002 4.79998 43.4002 4.49998 43.0002 4.49998C42.6002 4.39998 42.2002 4.79998 42.2002 5.29998Z" fill="#13377D"/>
<path d="M42.4999 3.5H43.5999L43.4999 2.1L44.6999 2.3V1.2L43.4999 1.3L43.5999 0H42.4999L42.5999 1.3L41.3999 1.2V2.3L42.5999 2.1L42.4999 3.5Z" fill="#13377D"/>
<path d="M38.6001 16.7C38.7001 16.7 38.9001 16.8 39.0001 16.8H47.0001C47.2001 16.8 47.3001 16.8 47.4001 16.7C47.7001 16.6 47.8001 16.4 47.9001 16.1H38.1001C38.2001 16.5 38.4001 16.6 38.6001 16.7Z" fill="#13377D"/>
<path d="M47.4001 15.5C47.5001 15.5 47.5001 15.4 47.5001 15.4V14.8C47.5001 14.7 47.4001 14.7 47.4001 14.7H38.7001C38.6001 14.7 38.6001 14.8 38.6001 14.8V15.4C38.6001 15.5 38.7001 15.5 38.7001 15.5H47.4001Z" fill="#13377D"/>
<path d="M48.2999 14C48.4999 13.7 49.5999 11.6 49.5999 9.39999C49.5999 7.39999 47.0999 6.29999 45.6999 6.29999C45.4999 9.09999 44.3999 13.5 42.9999 13.5C41.6999 13.5 40.4999 9.09999 40.2999 6.29999C38.7999 6.29999 36.3999 7.39999 36.3999 9.39999C36.3999 11.6 37.4999 13.8 37.6999 14H48.2999Z" fill="#13377D"/>
<path d="M43.0002 12.1C43.7002 12.1 44.5002 9.99999 44.8002 7.89999C44.8002 7.49999 44.1002 6.89999 43.0002 6.79999C41.9002 6.79999 41.2002 7.39999 41.2002 7.89999C41.5002 9.79999 42.4002 12.1 43.0002 12.1Z" fill="#13377D"/>
<path d="M55.6999 44.9C55.6999 44.6 55.4999 44.4 55.1999 44.4H30.8999C30.5999 44.4 30.3999 44.6 30.3999 44.9V61.6V61.7V61.8C30.3999 61.8 30.3999 62.7 30.7999 63.7C31.2999 64.9 33.3999 66.9 35.9999 68.3C39.6999 70.2 41.8999 71.7 42.9999 72.6C44.0999 71.7 46.2999 70.2 49.9999 68.3C52.6999 66.9 54.6999 64.9 55.1999 63.7C55.6999 62.6 55.5999 61.8 55.5999 61.8L55.6999 44.9ZM47.4999 51V51.1C47.7999 52.3 48.0999 53.6 48.1999 54.8C49.1999 55.6 50.0999 56.4 50.8999 57.2C52.3999 55.5 53.1999 53.9 53.1999 52.6C52.4999 52.6 51.8999 52 51.8999 51.3C51.8999 51 51.9999 50.8 52.0999 50.6C51.3999 50.3 50.5999 50.2 49.8999 50.2C49.2999 50.2 48.6999 50.3 47.9999 50.4H47.8999L47.6999 50.5L47.7999 50.4C47.8999 50.2 47.8999 50.1 47.9999 49.9C49.9999 49.5 51.5999 49.7 52.5999 50.3C52.7999 50.2 52.9999 50.1 53.1999 50.1C53.8999 50.1 54.4999 50.7 54.4999 51.4C54.4999 51.9 54.1999 52.3 53.7999 52.5C53.7999 53.9 52.9999 55.7 51.2999 57.7C51.3999 57.8 51.4999 57.9 51.5999 58C51.6999 58.1 51.6999 58.1 51.7999 58.2V58.3C51.6999 58.4 51.5999 58.5 51.4999 58.6H51.3999C51.3999 58.6 51.3999 58.6 51.2999 58.6C51.1999 58.5 51.1999 58.5 51.1999 58.4C51.0999 58.3 51.0999 58.2 50.9999 58.1C50.7999 58.3 50.5999 58.5 50.3999 58.7L50.1999 59C49.8999 59.2 49.5999 59.3 49.3999 59.2H49.2999L49.3999 59.1C49.8999 58.7 50.2999 58.2 50.6999 57.9C50.0999 57.2 49.2999 56.5 48.4999 55.8C48.5999 56.5 48.5999 57.2 48.5999 57.9C48.5999 58.5 48.5999 59.2 48.4999 59.9C48.3999 60 48.1999 60.1 48.0999 60.2L47.9999 60.3V60.2C48.0999 59.4 48.0999 58.6 48.0999 57.9C48.0999 57.7 48.0999 57.4 48.0999 57.2V57C48.0999 56.5 47.9999 55.1 47.8999 54.2C47.7999 53.4 47.5999 52.6 47.3999 51.8V51.7C47.4999 51.6 47.5999 51.5 47.6999 51.4L47.4999 51ZM39.2999 49.2C40.2999 46.8 41.6999 45.5 43.0999 45.5C44.4999 45.5 45.8999 46.8 46.8999 49.2V49.3H46.7999C46.6999 49.3 46.5999 49.4 46.3999 49.5H46.2999V49.4C45.3999 47.3 44.1999 46.1 42.9999 46.1C41.7999 46.1 40.5999 47.3 39.6999 49.4V49.5H39.5999C39.4999 49.3 39.2999 49.3 39.2999 49.2ZM38.8999 49.8C39.1999 50 40.0999 50.5 41.0999 50.2C41.9999 49.9 42.9999 49.9 42.9999 49.9C42.9999 49.9 44.0999 49.9 44.8999 50.2C45.8999 50.5 46.7999 50 47.0999 49.8C47.1999 49.8 47.1999 49.8 47.1999 49.9C47.0999 50.3 46.7999 51.3 45.2999 51.7C43.8999 52 43.1999 53.6 42.9999 54.3C42.9999 54.4 42.8999 54.4 42.7999 54.3C42.5999 53.6 41.8999 52 40.4999 51.7C38.9999 51.4 38.6999 50.3 38.5999 49.9C38.7999 49.8 38.8999 49.8 38.8999 49.8ZM41.2999 53.8C41.4999 53.8 41.7999 53.7 41.9999 53.6C42.0999 53.8 42.1999 54.1 42.2999 54.3C41.9999 54.5 41.6999 54.6 41.2999 54.6C40.1999 54.6 39.3999 53.7 39.3999 52.7C39.3999 52.4 39.4999 52.2 39.5999 52C39.7999 52.1 39.9999 52.2 40.2999 52.3C40.1999 52.4 40.1999 52.6 40.1999 52.7C40.0999 53.3 40.6999 53.8 41.2999 53.8ZM40.7999 52.6C40.7999 52.5 40.7999 52.5 40.7999 52.4C41.0999 52.5 41.3999 52.8 41.5999 53C41.4999 53.1 41.3999 53.1 41.2999 53.1C40.9999 53.1 40.7999 52.9 40.7999 52.6ZM41.2999 55.2C41.6999 55.2 42.1999 55.1 42.5999 54.8C42.6999 54.9 42.8999 55.3 42.9999 55.3C43.1999 55.3 43.2999 54.9 43.3999 54.8C43.7999 55 44.2999 55.2 44.6999 55.2C45.3999 55.2 45.9999 54.9 46.4999 54.5C46.4999 54.5 46.4999 54.5 46.4999 54.6C46.6999 55.4 46.7999 56.4 46.6999 56.8C46.6999 57.2 46.4999 57.6 46.3999 58C46.1999 58.5 46.0999 58.9 46.0999 58.9C46.0999 58.9 46.0999 59 45.9999 59.2C45.8999 59.6 45.5999 60.3 45.1999 61C44.3999 60.5 43.5999 60.3 42.5999 60.3C41.6999 60.3 40.8999 60.5 40.1999 60.9C39.8999 60.2 39.5999 59.6 39.4999 59.3C39.3999 59.1 39.3999 59 39.3999 59C39.3999 59 39.1999 58.6 38.9999 58C38.8999 57.7 38.7999 57.3 38.7999 56.9C38.7999 56.6 38.6999 55.6 38.9999 54.7C38.9999 54.6 39.0999 54.5 39.0999 54.4C39.7999 54.8 40.5999 55.2 41.2999 55.2ZM44.7999 53.8C45.4999 53.8 45.9999 53.3 45.9999 52.6C45.9999 52.4 45.9999 52.3 45.8999 52.2C46.0999 52.1 46.3999 52 46.5999 51.9C46.6999 52.1 46.7999 52.4 46.7999 52.6C46.7999 53.7 45.8999 54.5 44.8999 54.5C44.4999 54.5 44.1999 54.4 43.8999 54.2C43.9999 54 44.0999 53.8 44.1999 53.5C44.2999 53.7 44.5999 53.8 44.7999 53.8ZM44.4999 53C44.6999 52.7 44.9999 52.5 45.2999 52.4C45.2999 52.5 45.2999 52.5 45.2999 52.6C45.2999 52.9 45.0999 53.1 44.7999 53.1C44.6999 53.1 44.5999 53.1 44.4999 53ZM32.8999 50.2C33.1999 50.2 33.3999 50.3 33.5999 50.4C34.2999 50 35.0999 49.8 36.1999 49.8C36.7999 49.8 37.3999 49.9 38.0999 50H38.1999C38.1999 50.1 38.2999 50.3 38.3999 50.5L38.4999 50.6L38.2999 50.5C38.1999 50.5 38.1999 50.5 38.0999 50.5C37.4999 50.4 36.8999 50.3 36.2999 50.3C35.5999 50.3 34.6999 50.4 34.0999 50.8C34.1999 51 34.2999 51.2 34.2999 51.5C34.2999 52.2 33.6999 52.8 32.9999 52.8C32.9999 54 33.7999 55.6 35.2999 57.4C36.0999 56.6 36.9999 55.7 37.9999 55C38.0999 53.8 38.3999 52.5 38.6999 51.3V51.2L38.7999 51.3C38.8999 51.4 38.9999 51.5 39.0999 51.6C39.0999 51.6 39.0999 51.6 39.1999 51.7V51.8C38.9999 52.6 38.7999 53.3 38.6999 54.1V54.2C38.5999 54.8 38.4999 55.6 38.4999 56.4C38.4999 57 38.3999 57.5 38.3999 57.9C38.3999 58.5 38.3999 59.1 38.4999 59.9V60H38.3999C38.1999 59.9 38.0999 59.9 37.9999 59.9H37.8999V59.8C37.8999 59.3 37.7999 58.6 37.7999 57.9C37.7999 57.2 37.7999 56.5 37.8999 55.8C37.0999 56.5 36.2999 57.2 35.6999 57.9C36.1999 58.5 36.8999 59.1 37.6999 59.8L37.7999 59.9H37.6999C37.4999 60 37.1999 60 36.9999 59.9C36.3999 59.3 35.8999 58.9 35.3999 58.4C35.2999 58.5 35.1999 58.6 35.1999 58.7L35.0999 58.8C34.9999 58.8 34.8999 58.9 34.6999 59L34.5999 58.9C34.5999 58.9 34.4999 58.9 34.4999 58.8H34.3999V58.7C34.5999 58.4 34.7999 58.2 34.9999 58C33.2999 56.1 32.4999 54.3 32.4999 52.9C32.0999 52.7 31.7999 52.3 31.7999 51.8C31.5999 50.8 32.1999 50.2 32.8999 50.2ZM47.0999 65.7C46.3999 67.7 45.3999 69.1 44.2999 69.7C44.1999 70.3 43.6999 70.8 43.0999 70.8C42.4999 70.8 41.9999 70.3 41.8999 69.7C40.7999 69.1 39.7999 67.8 39.0999 65.8V65.7L39.6999 65.5V65.6C40.2999 67.3 41.0999 68.5 41.9999 69.1C42.1999 68.6 42.5999 68.2 43.1999 68.2C43.7999 68.2 44.1999 68.6 44.3999 69C45.2999 68.4 46.0999 67.2 46.6999 65.6V65.5H46.7999C46.7999 65.6 46.8999 65.6 47.0999 65.7ZM41.9999 65.6C41.9999 65.2 42.0999 64.1 42.2999 63.7C42.4999 63.6 42.7999 63.5 43.0999 63.5C43.3999 63.5 43.6999 63.6 43.9999 63.8C44.0999 64.2 44.2999 65.2 44.2999 65.6C44.2999 66 43.2999 66.3 43.1999 66.4C42.8999 66.3 41.9999 66.1 41.9999 65.6ZM54.7999 61.6C54.6999 61.7 54.5999 61.8 54.4999 61.8C54.3999 61.8 54.2999 61.9 54.0999 61.9H53.9999C53.7999 61.9 53.5999 61.9 53.4999 61.8C53.3999 61.8 53.3999 61.7 53.2999 61.7C52.9999 61.7 52.2999 61.9 52.0999 62C52.1999 62 53.0999 62.1 53.6999 62.6C53.9999 62.8 54.5999 62.9 54.7999 62.9C54.7999 63 53.7999 63.7 51.8999 63.3L51.3999 63.2C50.4999 63 49.6999 62.9 48.7999 62.9C48.8999 62.9 48.9999 63 48.9999 63C49.1999 63.1 49.4999 63.2 49.6999 63.3C49.6999 63.3 49.7999 63.3 49.7999 63.4H49.8999C49.9999 63.4 50.0999 63.4 50.0999 63.5C50.1999 63.5 50.2999 63.6 50.3999 63.6C50.4999 63.7 50.6999 63.8 50.6999 63.9C50.6999 64 50.7999 64 50.7999 64.1C50.7999 64.3 50.7999 64.4 50.6999 64.6C50.3999 65 49.9999 65 49.5999 64.6L49.4999 64.5C49.3999 64.4 49.2999 64.3 49.1999 64.1V64C49.1999 64 49.1999 64 49.0999 64C48.8999 63.9 48.7999 63.7 48.5999 63.7C48.2999 63.6 47.8999 63.5 47.5999 63.4C47.4999 63.4 47.3999 63.4 47.2999 63.4C47.5999 63.6 47.8999 63.8 47.9999 64C47.9999 64 47.9999 64 47.9999 64.1C48.1999 64.4 48.1999 64.7 48.2999 65C48.5999 65.6 48.6999 65.7 48.9999 65.9C48.6999 66 47.1999 66 46.4999 64.9C46.4999 64.9 46.3999 64.8 46.3999 64.7C46.1999 64.3 46.0999 63.9 45.9999 63.6C45.8999 63.3 46.0999 63 45.8999 62.9C45.6999 62.8 45.5999 62.9 45.5999 62.9C45.4999 63 45.4999 63 45.4999 63V63.1C45.4999 63.2 45.3999 63.2 45.3999 63.2V63.3C45.3999 63.3 45.3999 63.4 45.2999 63.4C45.2999 63.4 45.2999 63.4 45.1999 63.4C45.0999 63.4 45.0999 63.4 44.9999 63.4C44.9999 63.4 44.9999 63.4 44.8999 63.4C44.8999 63.4 44.7999 63.4 44.7999 63.5C44.6999 63.5 44.5999 63.6 44.4999 63.6C44.3999 63.6 44.2999 63.5 44.2999 63.4C44.2999 63.3 44.2999 63.3 44.2999 63.2C44.1999 63.2 44.1999 63.2 44.0999 63.2C43.9999 63.2 43.9999 63.2 43.8999 63.1C43.8999 63 43.8999 62.9 43.8999 62.9C43.8999 62.8 43.8999 62.8 43.8999 62.8C43.7999 62.9 43.7999 62.9 43.6999 62.9C43.5999 62.9 43.5999 62.9 43.4999 62.9C43.3999 62.9 43.3999 62.8 43.3999 62.7V62.6C43.3999 62.6 43.3999 62.6 43.3999 62.5C43.3999 62.5 43.3999 62.5 43.2999 62.5H43.1999C43.0999 62.5 42.8999 62.4 42.7999 62.4C42.7999 62.4 42.7999 62.4 42.6999 62.4C42.5999 62.4 42.3999 62.5 42.2999 62.5H42.1999H42.0999C42.0999 62.5 42.0999 62.5 42.0999 62.4C42.0999 62.4 42.0999 62.4 42.0999 62.3L42.1999 62.2C42.1999 62.2 42.1999 62.2 42.1999 62.1C42.0999 62.1 42.0999 62.1 41.9999 62.1V62.2C41.9999 62.2 41.9999 62.2 41.8999 62.2V62.3V62.4C41.8999 62.5 41.8999 62.6 41.7999 62.6C41.6999 62.7 41.6999 62.7 41.5999 62.6C41.5999 62.6 41.4999 62.6 41.4999 62.5C41.4999 62.5 41.3999 62.5 41.3999 62.4C41.3999 62.4 41.3999 62.5 41.4999 62.5C41.4999 62.6 41.4999 62.6 41.4999 62.7C41.3999 62.8 41.3999 62.8 41.2999 62.8H41.1999H41.0999C41.0999 62.9 41.1999 62.9 41.0999 63C41.0999 63.1 40.9999 63.1 40.8999 63.1C40.7999 63.1 40.7999 63.1 40.6999 63.1C40.6999 63.1 40.6999 63.1 40.5999 63.1H40.4999L40.3999 63C40.3999 63 40.2999 63 40.1999 63C40.1999 63 40.0999 63 40.0999 62.9L39.9999 62.8V62.7C39.7999 62.5 39.4999 63.2 39.4999 63.2C38.5999 65.1 36.3999 65.5 36.3999 65.4C36.3999 65.4 36.8999 65.2 37.0999 64.5C37.1999 64.1 37.1999 64 37.3999 63.6C37.3999 63.5 37.4999 63.5 37.4999 63.4C37.5999 63.2 37.8999 63.1 38.0999 62.9C37.9999 62.9 37.8999 62.9 37.7999 62.9C37.4999 63 37.1999 63 36.7999 63.2C36.5999 63.3 36.4999 63.4 36.2999 63.5C36.2999 63.5 36.2999 63.5 36.1999 63.5V63.6C36.1999 63.7 36.0999 63.8 35.9999 64L35.8999 64.1C35.4999 64.5 35.1999 64.5 34.7999 64.1L34.6999 64C34.5999 63.9 34.5999 63.7 34.6999 63.6C34.6999 63.5 34.7999 63.4 34.8999 63.3C34.9999 63.2 35.0999 63.2 35.1999 63.1C35.2999 63 35.3999 63 35.4999 63C35.5999 63 35.5999 63 35.6999 62.9C35.6999 62.9 35.7999 62.9 35.8999 62.9C35.8999 62.9 35.8999 62.8 35.9999 62.8C36.0999 62.8 36.1999 62.7 36.2999 62.7C36.3999 62.7 36.4999 62.6 36.5999 62.6C36.5999 62.6 36.6999 62.6 36.7999 62.5C35.9999 62.5 35.1999 62.6 34.2999 62.8C34.1999 62.8 33.9999 62.9 33.7999 62.9C32.7999 63.1 30.8999 62.6 30.8999 62.5C30.8999 62.4 31.3999 62.4 31.8999 62.1C32.2999 61.9 32.4999 61.7 32.7999 61.6C33.2999 62 33.8999 62 33.9999 62C33.7999 61.9 32.8999 61.8 32.5999 61.7C32.5999 61.7 32.4999 61.8 32.3999 61.8C32.1999 61.9 31.9999 61.9 31.7999 61.9C31.6999 61.9 31.4999 61.9 31.3999 61.8C31.2999 61.8 31.1999 61.7 31.0999 61.6C30.9999 61.5 30.9999 61.4 30.9999 61.1C31.0999 60.7 31.4999 60.5 31.9999 60.6C32.2999 60.7 32.4999 60.8 32.5999 60.9L32.6999 61C32.9999 61 33.3999 61.2 33.7999 61.3C34.1999 61.5 34.4999 61.6 34.6999 61.6C34.5999 61.6 34.4999 61.5 34.3999 61.5C34.2999 61.5 34.1999 61.4 34.1999 61.4C34.0999 61.3 33.9999 61.3 33.8999 61.2C33.2999 60.9 32.6999 60.6 32.2999 60.2C31.9999 59.8 31.8999 59.6 31.7999 59.2C31.6999 58.3 31.2999 57.9 31.2999 57.8C31.3999 57.7 32.7999 58.4 33.2999 58.9C33.5999 59.3 33.6999 59.6 33.7999 59.9V60C33.8999 60.3 34.1999 60.6 34.6999 60.9C34.7999 60.9 34.7999 61 34.8999 61C34.7999 60.8 34.6999 60.7 34.5999 60.5V60.4L34.4999 60.3C34.4999 60.3 34.3999 60.2 34.3999 60.1C34.2999 60 34.2999 59.9 34.1999 59.8C34.0999 59.5 34.0999 59.2 34.1999 59.1C34.2999 59 34.3999 58.9 34.5999 58.8C34.9999 58.7 35.2999 58.9 35.3999 59.5C35.3999 59.6 35.3999 59.7 35.3999 59.8C35.3999 59.9 35.3999 60 35.3999 60.1V60.2C35.3999 60.2 35.3999 60.2 35.3999 60.3C35.5999 60.9 36.0999 61.4 36.6999 61.8C35.9999 61.2 35.5999 59.8 35.6999 59.8C35.7999 59.7 36.3999 60.1 36.9999 60.4C37.2999 60.5 37.5999 60.7 37.8999 60.9C38.0999 61 38.2999 61.2 38.3999 61.3C38.5999 61.4 38.6999 61.6 38.7999 61.7C38.8999 61.8 38.9999 61.9 39.0999 62C39.1999 62.1 39.1999 62.1 39.2999 62.2C39.4999 62.3 39.7999 62.2 39.7999 62.2C39.8999 62.2 39.9999 62.2 40.0999 62.1C40.0999 62.1 40.0999 62.1 40.1999 62C40.2999 61.9 40.3999 61.9 40.4999 61.9V61.8C40.4999 61.6 40.5999 61.5 40.7999 61.4C40.7999 61.4 40.8999 61.4 40.8999 61.3H40.9999H41.0999H41.1999C41.1999 61.2 41.2999 61.2 41.3999 61.1C41.5999 61 41.8999 61 42.0999 61.2C42.1999 61.3 42.1999 61.4 42.2999 61.5V61.6C42.2999 61.7 42.2999 61.7 42.2999 61.8C42.2999 61.9 42.2999 61.9 42.2999 62C42.3999 62 42.5999 62 42.6999 62C42.7999 62 42.7999 62 42.8999 62C42.9999 62 43.0999 62 43.1999 62.1C43.2999 62.1 43.3999 62 43.4999 62C43.5999 62 43.5999 62 43.6999 62H43.7999C43.7999 61.9 43.7999 61.8 43.7999 61.7C43.7999 61.6 43.7999 61.5 43.8999 61.4C43.8999 61.4 43.8999 61.3 43.9999 61.3L44.0999 61.2C44.2999 61.1 44.4999 61.1 44.6999 61.2C44.7999 61.2 44.7999 61.3 44.8999 61.4C44.9999 61.4 44.9999 61.4 45.0999 61.4H45.1999H45.2999C45.4999 61.5 45.5999 61.6 45.5999 61.8C45.5999 61.8 45.5999 61.8 45.6999 61.8H45.7999C45.7999 61.8 46.2999 61.8 46.3999 61.9H46.8999C46.9999 61.8 46.9999 61.8 47.0999 61.7C47.1999 61.6 47.3999 61.4 47.4999 61.3C47.6999 61.2 47.7999 61 47.9999 60.9C48.2999 60.7 48.6999 60.6 48.9999 60.5C49.9999 60.1 50.0999 59.5 50.1999 59.5C50.2999 59.6 49.9999 61.2 49.2999 61.8C49.7999 61.4 50.2999 60.9 50.5999 60.3C50.5999 60.3 50.5999 60.3 50.5999 60.2V60.1C50.5999 60 50.5999 59.9 50.5999 59.8C50.5999 59.7 50.5999 59.6 50.5999 59.5C50.7999 59 50.9999 58.7 51.3999 58.8C51.5999 58.9 51.6999 59 51.7999 59.1C51.8999 59.3 51.8999 59.5 51.7999 59.8C51.7999 59.9 51.6999 60 51.5999 60.1C51.4999 60.2 51.4999 60.2 51.3999 60.3L51.2999 60.4V60.5C51.1999 60.7 51.0999 60.8 50.8999 61C50.9999 60.9 50.9999 60.9 51.0999 60.8C51.5999 60.4 51.8999 60.1 51.9999 59.8C52.0999 59.5 52.1999 59.2 52.4999 58.8C52.9999 58.3 53.0999 58.1 53.5999 57.8C53.6999 57.7 54.3999 57.6 54.4999 57.6C54.5999 57.7 53.9999 57.9 53.7999 58.9C53.6999 59.2 53.5999 59.7 53.2999 60.1C52.8999 60.6 52.4999 60.7 51.9999 61L51.8999 61.1C51.7999 61.2 51.6999 61.2 51.4999 61.3C51.2999 61.4 51.1999 61.5 51.0999 61.5C51.3999 61.4 51.6999 61.3 52.0999 61.2C52.3999 61 52.7999 60.9 53.1999 60.9C53.1999 60.9 53.1999 60.8 53.2999 60.8C53.3999 60.7 53.5999 60.6 53.8999 60.5C54.3999 60.3 54.7999 60.5 54.8999 61C54.9999 61.3 54.8999 61.5 54.7999 61.6Z" fill="#13377D"/>
<path d="M72.3002 41.5C73.8002 40.8 76.3002 39.1 77.3002 37.9C75.9002 37.4 73.1002 37.1 71.5002 37.1C74.8002 34.8 74.9002 30 74.0002 26.5C73.2002 29.3 71.2002 31.6 69.9002 33C70.0002 34.4 69.6002 36.8 68.8002 38.2C69.9002 38.6 71.2002 39.2 72.1002 39.9C71.5002 40.7 70.2002 41.8 69.4002 42.5C70.1002 43.2 71.2002 44.5 71.8002 45.3C71.0002 45.9 69.4002 46.5 68.5002 46.8C68.9002 47.7 69.5002 49.2 69.7002 50.3C68.7002 50.5 67.4002 50.6 66.0002 50.6C66.1002 51.6 65.9002 53.2 65.7002 54.2C64.4002 54.1 62.9002 53.6 62.2002 53.2C61.8002 54.6 60.9002 56 60.9002 56.1C59.7002 54.7 58.5002 54.2 57.4002 54.2V53.3C58.5002 53.3 59.7002 53.7 60.6002 54.6C61.0002 53.9 61.4002 52.6 61.6002 51.8C62.4002 52.2 63.7002 52.7 64.8002 52.9C64.9002 51.9 65.0002 50.6 64.9002 49.6C66.0002 49.7 67.2002 49.7 68.5002 49.5C68.3002 48.6 67.5002 47.1 67.0002 46.3C68.1002 46 69.5002 45.4 70.2002 45C69.6002 44.2 68.6002 43.1 67.9002 42.4C68.7002 41.8 70.0002 40.8 70.5002 40.2C69.6002 39.6 68.4002 39 67.4002 38.6C68.8002 36.7 69.1002 32.8 68.8002 31C67.6002 35.1 64.0002 38.1 61.8002 39.5C61.7002 39.6 61.6002 39.7 61.5002 39.7C61.4002 39.8 61.0002 40.3 61.2002 40.9C61.2002 41.1 61.3002 41.2 61.3002 41.4C61.5002 42.2 61.5002 43.4 60.3002 44.5C59.3002 45.4 58.1002 45.5 57.4002 45.4V43.2C57.4002 42.9 57.2002 42.7 56.9002 42.7H55.4002L54.7002 42C54.7002 42 55.4002 42 56.2002 42C57.0002 41.9 57.9002 41.5 57.9002 41.5C57.9002 41.5 57.0002 41.5 56.6002 41.4C56.1002 41.5 55.0002 41 54.1002 40C53.8002 39.6 53.5002 39.2 53.3002 38.8C52.5002 38.1 51.6002 37.2 51.0002 35.9C50.6002 35 50.4002 33.7 50.3002 32.9C50.0002 33.1 49.7002 33.5 49.3002 34C48.6002 34.9 48.3002 36.2 48.3002 36.2L48.0002 37.2L47.5002 36.3C47.5002 36.3 46.8002 35.1 46.7002 33.6C46.7002 32.9 46.7002 32.3 46.8002 31.8C46.6002 31.9 46.3002 32.1 46.0002 32.3C44.8002 33.2 44.1002 34.1 44.1002 34.1C43.5002 34.9 43.1002 35.6 43.0002 35.9C42.9002 35.5 42.5002 34.9 41.9002 34.1C41.9002 34.1 41.3002 33.1 40.0002 32.3C39.7002 32.1 39.4002 31.9 39.2002 31.8C39.3002 32.3 39.3002 33 39.3002 33.6C39.2002 35.1 38.5002 36.2 38.5002 36.3L38.0002 37.1L37.7002 36.1C37.7002 36.1 37.3002 34.8 36.7002 33.9C36.3002 33.4 36.0002 33 35.7002 32.8C35.6002 33.6 35.4002 35 35.0002 35.8C34.4002 37.1 33.6002 38.1 32.7002 38.7C32.5002 39.1 32.2002 39.5 31.9002 39.9C31.0002 40.9 29.9002 41.4 29.4002 41.5C29.0002 41.6 28.1002 41.6 28.1002 41.6C28.1002 41.6 29.0002 42 29.8002 42.1C30.6002 42.2 31.3002 42.1 31.3002 42.1L30.6002 42.8H29.1002C28.8002 42.8 28.6002 43 28.6002 43.3V45.5C27.9002 45.6 26.6002 45.5 25.7002 44.6C24.6002 43.5 24.5002 42.3 24.7002 41.5C24.8002 41.4 24.8002 41.2 24.8002 41C25.0002 40.4 24.6002 39.9 24.5002 39.8C24.4002 39.7 24.3002 39.6 24.2002 39.6C22.0002 38.2 18.5002 35.2 17.2002 31.1C16.9002 32.9 17.3002 36.7 18.6002 38.7C17.6002 39.1 16.3002 39.7 15.5002 40.3C16.0002 40.9 17.3002 42 18.1002 42.5C17.4002 43.1 16.3002 44.3 15.8002 45.1C16.5002 45.5 17.9002 46.1 19.0002 46.4C18.5002 47.2 17.7002 48.7 17.5002 49.6C18.7002 49.8 20.0002 49.8 21.1002 49.7C21.0002 50.7 21.1002 52.1 21.2002 53C22.3002 52.8 23.6002 52.4 24.4002 51.9C24.6002 52.6 25.0002 54 25.4002 54.7C26.3002 53.8 27.5002 53.4 28.6002 53.4V54.3C27.5002 54.3 26.3002 54.8 25.1002 56.2C25.1002 56.1 24.2002 54.7 23.8002 53.3C23.1002 53.6 21.6002 54.2 20.3002 54.3C20.1002 53.3 20.0002 51.7 20.0002 50.7C18.6002 50.7 17.3002 50.6 16.3002 50.4C16.5002 49.3 17.1002 47.8 17.5002 46.9C16.6002 46.6 15.0002 45.9 14.2002 45.4C14.7002 44.6 15.9002 43.3 16.6002 42.6C15.8002 42 14.5002 40.8 13.9002 40C14.8002 39.3 16.1002 38.7 17.2002 38.3C16.4002 36.8 16.0002 34.4 16.1002 33.1C14.7002 31.7 12.7002 29.4 12.0002 26.6C11.0002 30.1 11.2002 35 14.5002 37.2C12.9002 37.2 10.1002 37.6 8.7002 38C9.7002 39.2 12.2002 40.8 13.7002 41.6C12.5002 42 10.4002 43.2 9.5002 44C10.6002 44.7 13.1002 45.5 14.3002 45.8C13.6002 46.4 12.2002 48 11.7002 48.8C12.7002 49.1 14.7002 49.4 16.0002 49.4C15.6002 50.3 15.1002 51.8 15.0002 52.7C15.6002 52.8 17.7002 52.7 18.8002 52.4C18.7002 53.3 18.7002 54.8 18.9002 55.5C19.9002 55.4 21.4002 54.9 22.1002 54.7C22.3002 55.5 23.0002 57.1 23.3002 57.5C23.8002 57.4 24.3002 57.3 24.8002 57.1C26.2002 56.6 27.7002 57.2 28.3002 58.5C29.3002 60.8 28.9002 63.5 27.0002 63C24.8002 63.4 26.3002 66.2 25.0002 67.1C26.7002 68.3 27.2002 65.5 29.4002 66C29.2002 67 29.2002 68.9 29.4002 69.7C30.1002 69.2 31.1002 68.8 31.7002 68.7C31.5002 69.3 31.4002 70.7 31.6002 71.6C32.0002 71.3 34.9002 70.5 34.9002 70.5C34.9002 70.5 33.8002 72.7 34.5002 74.9C34.9002 75.2 37.5002 73.9 37.5002 73.2C37.6002 74.1 36.5002 76.1 34.8002 76.5C36.6002 78.3 38.2002 78.2 38.4002 78.2C38.7002 78.2 38.9002 78.2 39.1002 78C39.0002 78.5 38.9002 79.2 39.0002 79.6C39.1002 79.6 39.2002 79.6 39.3002 79.6C39.8002 79.6 40.2002 79.5 40.5002 79.4C40.6002 79.9 40.8002 80.4 41.1002 80.8C41.2002 80.9 41.2002 80.9 41.3002 81C41.7002 81 42.7002 80.5 42.9002 80.2C43.1002 80.5 44.1002 81 44.5002 81C44.6002 80.9 44.7002 80.9 44.7002 80.8C45.1002 80.4 45.3002 79.8 45.3002 79.4C45.7002 79.6 46.1002 79.6 46.5002 79.6C46.6002 79.6 46.7002 79.6 46.8002 79.6C46.9002 79.2 46.9002 78.5 46.7002 78C46.9002 78.1 47.2002 78.2 47.4002 78.2C47.6002 78.2 49.2002 78.3 51.0002 76.5C49.3002 76.1 48.2002 74.1 48.3002 73.2C48.3002 74 50.9002 75.2 51.3002 74.9C52.0002 72.7 50.9002 70.5 50.9002 70.5C50.9002 70.5 53.7002 71.2 54.2002 71.6C54.4002 70.7 54.3002 69.3 54.1002 68.7C54.7002 68.7 55.7002 69.2 56.4002 69.7C56.6002 68.9 56.6002 67.1 56.4002 66C58.5002 65.5 59.0002 68.3 60.8002 67.1C59.6002 66.2 61.1002 63.4 58.8002 63C56.9002 63.6 56.5002 60.8 57.5002 58.5C58.1002 57.2 59.7002 56.6 61.0002 57.1C61.5002 57.3 62.0002 57.4 62.5002 57.5C62.7002 57.1 63.5002 55.5 63.7002 54.7C64.4002 55 65.9002 55.4 66.9002 55.5C67.0002 54.8 67.1002 53.3 67.0002 52.4C68.0002 52.6 70.2002 52.7 70.8002 52.7C70.7002 51.7 70.2002 50.2 69.8002 49.4C71.1002 49.3 73.1002 49.1 74.1002 48.8C73.6002 47.9 72.2002 46.3 71.5002 45.8C72.7002 45.5 75.2002 44.7 76.3002 44C75.6002 43.1 73.5002 41.9 72.3002 41.5ZM56.1002 64C56.0002 64.2 55.9002 64.3 55.8002 64.5C55.8002 64.6 55.7002 64.6 55.7002 64.7C55.6002 64.8 55.5002 64.9 55.4002 65.1C55.3002 65.2 55.3002 65.2 55.2002 65.3C55.1002 65.5 54.9002 65.6 54.8002 65.8C54.7002 65.9 54.6002 66 54.5002 66.1C54.4002 66.2 54.3002 66.3 54.2002 66.4C54.1002 66.5 54.0002 66.6 53.8002 66.8C53.7002 66.9 53.7002 66.9 53.6002 67C53.3002 67.3 52.9002 67.6 52.5002 67.8C52.0002 68.2 51.5002 68.5 50.9002 68.8C50.7002 68.9 50.5002 69 50.3002 69.1C45.8002 71.4 43.6002 73.2 42.9002 73.7H42.8002C42.1002 73.1 39.9002 71.4 35.4002 69.1C35.2002 69 35.0002 68.9 34.8002 68.8C34.2002 68.5 33.7002 68.2 33.2002 67.8C32.8002 67.5 32.5002 67.2 32.1002 67C32.0002 66.9 31.9002 66.9 31.9002 66.8C31.8002 66.7 31.6002 66.6 31.5002 66.4C31.4002 66.3 31.3002 66.2 31.2002 66.1C31.1002 66 31.0002 65.9 30.9002 65.8C30.7002 65.6 30.6002 65.5 30.5002 65.3C30.4002 65.2 30.4002 65.2 30.3002 65.1C30.2002 65 30.1002 64.9 30.0002 64.7C30.0002 64.6 29.9002 64.6 29.9002 64.5C29.8002 64.3 29.7002 64.2 29.6002 64C29.0002 62.7 29.1002 61.6 29.1002 61.6V44.1C29.1002 43.8 29.3002 43.6 29.6002 43.6H31.1002H43.0002H54.5002H56.0002C56.3002 43.6 56.5002 43.8 56.5002 44.1V61.6C56.6002 61.6 56.7002 62.7 56.1002 64Z" fill="#13377D"/>
<path d="M55.4999 16C55.8999 16 56.0999 15.7 56.0999 15.3C56.0999 14.9 55.7999 14.6 55.4999 14.6C55.0999 14.6 54.8999 14.9 54.8999 15.3C54.8999 15.7 55.1999 16 55.4999 16Z" fill="#13377D"/>
<path d="M55.5002 19.7C55.9002 19.7 56.3002 18 56.3002 17.2C56.3002 16.7 55.9002 16.4 55.5002 16.4C55.1002 16.4 54.7002 16.7 54.7002 17.2C54.7002 18 55.1002 19.7 55.5002 19.7Z" fill="#13377D"/>
<path d="M55.1001 13.6H56.0001L55.8001 12.5L56.9001 12.6V11.7L55.8001 11.9L56.0001 10.8H55.1001L55.2001 11.9L54.1001 11.7V12.6L55.2001 12.5L55.1001 13.6Z" fill="#13377D"/>
<path d="M51.6002 21.7C51.9002 21.8 52.2002 21.8 52.5002 21.9H52.6002H52.7002C52.8002 21.9 52.8002 21.9 52.8002 21.9H53.0002C53.1002 21.9 53.2002 21.9 53.3002 21.9C53.4002 21.9 53.4002 21.9 53.5002 21.9C53.6002 21.9 53.7002 21.9 53.8002 21.9C54.6002 21.9 55.4002 21.7 56.2002 21.5C57.0002 21.3 57.8002 21.1 58.7002 21.1H58.8002H58.9002H59.0002H59.1002H59.2002H59.3002C59.5002 20.2 59.8002 19.2 59.8002 18.6C59.8002 17.4 59.1002 16.1 56.8002 15.7C56.8002 17.2 56.1002 20.7 55.3002 20.7H55.2002C54.4002 20.7 53.7002 17.2 53.7002 15.7C51.4002 16.1 50.7002 17.4 50.7002 18.6C50.7002 19.3 51.0002 20.6 51.3002 21.5C51.6002 21.6 51.6002 21.6 51.6002 21.7Z" fill="#13377D"/>
<path d="M63.6 15.4C63.6 15.4 63 13.8 64 13.3C65.1 12.9 63.6 13.1 64.4 10.9C65.3 8.29996 67.3 8.89996 67.3 8.89996C65.9 7.79996 64.8 7.89996 64 8.49996C63.5 8.89996 62.8 9.69996 62.3 11.3C61.9 13.3 62.6 15.2 63.6 15.4Z" fill="#13377D"/>
<path d="M68.7999 11.5C68.8999 14.8 74.3999 16.2 74.3999 16.2C74.3999 16.2 71.1999 13.9 71.7999 12.2C71.7999 12.2 73.8999 13.1 76.2999 12.7C71.1999 11.6 72.8999 9.99999 71.5999 8.69999C70.2999 7.29999 68.2999 7.19999 67.7999 7.09999C66.4999 6.99999 66.3999 6.99999 64.8999 7.39999C68.3999 7.49999 68.7999 9.29999 68.7999 11.5Z" fill="#13377D"/>
<path d="M68.0999 17.7C68.7999 15.1 67.4999 13.9 67.4999 13.9C67.0999 13.4 64.9999 13.5 64.1999 14C64.1999 14 66.1999 14 65.8999 16.9C65.5999 19.8 61.5999 20.4 60.4999 20.5L60.3999 20.9C62.2999 20.9 67.2999 20.3 68.0999 17.7Z" fill="#13377D"/>
<path d="M47.2002 17.6H45.2002C46.2002 20.4 49.1002 21.3 51.0002 21.6L50.9002 21.3C48.9002 20.5 47.9002 19.7 47.2002 17.6Z" fill="#13377D"/>
<path d="M30.5999 16C30.9999 16 31.1999 15.7 31.1999 15.3C31.1999 14.9 30.8999 14.6 30.5999 14.6C30.1999 14.6 29.9999 14.9 29.9999 15.3C29.8999 15.7 30.1999 16 30.5999 16Z" fill="#13377D"/>
<path d="M30.5998 19.7C30.9998 19.7 31.3998 18 31.3998 17.2C31.3998 16.7 30.9998 16.4 30.5998 16.4C30.1998 16.4 29.7998 16.7 29.7998 17.2C29.7998 18 30.0998 19.7 30.5998 19.7Z" fill="#13377D"/>
<path d="M30.1002 13.6H31.0002L30.9002 12.5L32.0002 12.6V11.7L30.9002 11.9L31.0002 10.8H30.1002L30.3002 11.9L29.2002 11.7V12.6L30.3002 12.5L30.1002 13.6Z" fill="#13377D"/>
<path d="M26.5999 21.1H26.6999H26.7999H26.9999C27.0999 21.1 27.0999 21.1 27.0999 21.1H27.1999C28.0999 21.2 28.9999 21.3 29.6999 21.5C30.3999 21.7 31.2999 21.9 32.0999 21.9C32.1999 21.9 32.2999 21.9 32.3999 21.9C32.4999 21.9 32.4999 21.9 32.5999 21.9C32.6999 21.9 32.7999 21.9 32.8999 21.9H33.0999H33.1999H33.2999H33.3999C33.6999 21.9 33.9999 21.8 34.2999 21.7C34.2999 21.6 34.2999 21.6 34.3999 21.6C34.6999 20.7 34.9999 19.4 34.9999 18.7C34.9999 17.5 34.3999 16.2 31.9999 15.8C31.9999 17.2 31.2999 20.8 30.4999 20.8H30.3999C29.5999 20.8 28.8999 17.3 28.8999 15.8C26.5999 16.2 25.8999 17.5 25.8999 18.7C25.8999 19.3 26.0999 20.3 26.3999 21.2C26.4999 21.1 26.4999 21.1 26.5999 21.1Z" fill="#13377D"/>
<path d="M18.7002 8.89999C18.7002 8.89999 20.7002 8.29999 21.6002 10.9C22.4002 13.1 20.9002 12.9 22.0002 13.3C23.1002 13.7 22.4002 15.4 22.4002 15.4C23.5002 15.2 24.2002 13.3 23.6002 11.2C23.1002 9.59999 22.4002 8.79999 21.9002 8.39999C21.1002 7.89999 20.1002 7.79999 18.7002 8.89999Z" fill="#13377D"/>
<path d="M14.2001 12.2C14.8001 13.9 11.6001 16.2 11.6001 16.2C11.6001 16.2 17.2001 14.8 17.2001 11.5C17.3001 9.30004 17.6001 7.50004 21.0001 7.40004C19.5001 7.10004 19.4001 7.10004 18.1001 7.10004C17.6001 7.10004 15.6001 7.30004 14.3001 8.70004C13.1001 10 14.7001 11.6 9.6001 12.7C12.1001 13.1 14.2001 12.2 14.2001 12.2Z" fill="#13377D"/>
<path d="M20.1999 16.9C19.8999 14 21.8999 14 21.8999 14C21.1999 13.5 19.0999 13.5 18.5999 13.9C18.5999 13.9 17.2999 15 17.9999 17.7C18.6999 20.3 23.7999 20.9 25.6999 20.9L25.5999 20.5C24.4999 20.4 20.4999 19.8 20.1999 16.9Z" fill="#13377D"/>
<path d="M40.9001 17.6H38.9001C38.2001 19.7 37.2001 20.5 35.2001 21.3L35.1001 21.6C37.1001 21.3 39.9001 20.4 40.9001 17.6Z" fill="#13377D"/>
<path d="M45.6001 29.9C45.0001 30.8 44.5001 31.8 44.1001 32.8C44.4001 32.4 44.9001 32 45.4001 31.6C46.3001 31 47.1001 30.6 47.1001 30.6L47.9001 30.3L47.7001 31.1C47.7001 31.1 47.4001 32.4 47.5001 33.5C47.5001 34 47.7001 34.5 47.8001 34.8C48.0001 34.3 48.3001 33.8 48.6001 33.3C49.6001 32 50.4001 31.5 50.4001 31.5L51.0001 31.2V31.9C51.0001 31.9 51.2001 34.2 51.7001 35.4C52.6001 37.4 54.3001 38.5 55.3001 39C55.2001 38.9 55.0001 38.7 54.8001 38.5C54.3001 38 53.8001 37.1 53.5001 35.2C53.3001 33.6 53.9001 32 54.1001 31.5C54.2001 31.9 54.4001 32.3 54.6001 32.4C54.6001 32.4 54.6001 32 54.7001 31.6C54.9001 30.5 56.1001 28.8 57.7001 27.8C58.0001 27.6 58.3001 27.4 58.5001 27.3C58.8001 27.2 59.0001 27 59.2001 26.8C58.9001 26.8 58.5001 26.9 58.2001 26.9H58.1001C57.9001 26.9 57.6001 26.9 57.2001 26.9C56.4001 26.9 55.5001 26.8 54.8001 26.2C54.1001 25.6 53.8001 25 53.7001 24.6C53.4001 24.6 53.0001 24.6 52.5001 24.6C51.9001 24.6 51.4001 24.4 51.1001 24.4C50.3001 24.9 49.5001 25.1 48.5001 25.2C48.4001 25.2 48.2001 25.2 48.1001 25.2C48.4001 25.5 48.8001 25.7 49.1001 25.9C49.1001 25.9 49.1001 25.9 49.2001 25.9L49.0001 26C49.1001 25.9 47.7001 26.7 45.6001 29.9Z" fill="#13377D"/>
<path d="M58.7001 24.3C58.3001 24.3 58.0001 24.3 57.6001 24.3C57.6001 24.5 57.6001 24.7 57.6001 24.9C57.7001 25.2 57.8001 25.4 58.0001 25.6C58.3001 25.4 58.6001 24.9 58.7001 24.3Z" fill="#13377D"/>
<path d="M59.5002 22C59.4002 22 59.4002 22 59.5002 22H59.4002C59.4002 22 59.4002 22 59.3002 22C59.2002 22 59.2002 22 59.1002 22C58.3002 22 57.5002 22.2 56.7002 22.4C55.9002 22.6 55.0002 22.8 54.2002 22.8C54.0002 22.8 53.9002 22.8 53.7002 22.8C53.6002 22.8 53.5002 22.8 53.4002 22.8C53.3002 22.8 53.3002 22.8 53.2002 22.8C53.1002 22.8 53.1002 22.8 53.0002 22.8C53.0002 22.8 53.0002 22.8 52.9002 22.8C52.9002 22.8 52.9002 22.8 52.8002 22.8C51.0002 22.6 49.8002 22 49.2002 21.7C49.3002 21.9 49.5002 22.1 49.8002 22.4C49.9002 22.5 50.0002 22.6 50.1002 22.7C50.3002 22.9 50.6002 23.1 50.9002 23.3C51.3002 23.5 53.0002 24.2 55.2002 23.9C57.7002 23.5 58.2002 23.6 58.8002 23.6H59.0002C59.9002 23.7 61.2002 24.2 61.7002 24.5C61.9002 24 62.2002 23.5 62.3002 23C62.2002 22.9 62.0002 22.7 61.6002 22.5C61.5002 22.4 61.4002 22.4 61.2002 22.3C61.0002 22.2 60.7002 22.1 60.3002 22.1C59.9002 22 59.7002 22 59.5002 22Z" fill="#13377D"/>
<path d="M66.4999 30.2C66.3999 30.2 65.4999 30.7 63.5999 29.5C61.6999 28.3 60.2999 27.8 59.4999 27.6C59.2999 27.7 59.1999 27.8 58.9999 27.9C58.7999 28 58.4999 28.2 58.1999 28.4C58.0999 28.5 57.9999 28.5 57.8999 28.6C57.8999 28.6 57.9999 28.6 58.0999 28.6C59.8999 28.8 61.2999 29.8 61.3999 30.2H61.4999C61.6999 29.6 61.3999 29.1 61.3999 29.1C61.3999 29.1 62.1999 29.6 63.7999 30.5C65.4999 31.6 66.1999 30.6 66.4999 30.2Z" fill="#13377D"/>
<path d="M57.0002 25.3C56.9002 25.2 56.8002 25 56.7002 24.9C56.6002 24.7 56.6002 24.6 56.6002 24.5C56.2002 24.5 55.7002 24.6 55.1002 24.7C55.0002 24.7 54.8002 24.7 54.7002 24.7C55.0002 25.3 55.5002 25.9 56.5002 26.1C56.6002 26.1 56.6002 26.1 56.7002 26.1C56.8002 26.1 56.8002 26.1 56.9002 26.1C57.3002 26.2 57.8002 26.2 58.1002 26.2C58.8002 26.2 59.6002 26.1 60.4002 25.9C60.6002 25.7 60.7002 25.4 60.9002 25.2C60.9002 25.2 60.8002 25.1 60.7002 25.1C60.5002 25 60.0002 24.7 59.7002 24.6C59.6002 24.9 59.4002 25.2 59.2002 25.4C58.9002 25.6 58.5002 25.7 58.1002 25.7C57.7002 25.7 57.3002 25.6 57.1002 25.4C57.0002 25.4 57.0002 25.3 57.0002 25.3Z" fill="#13377D"/>
<path d="M62.3 23.8C61.7 25.4 60.7 26.6 60 27.2C64.5 26 65.3 28.3 65.3 28.4C65.3 28.5 65.3 28.5 65.4 28.4C65.5 28.3 67 26.7 65.9 25.2C65 24 63 23.8 62.3 23.8ZM62.3 25C62.5 24.8 62.6 24.4 62.6 24.4C62.9 24.4 63.5 24.5 63.5 24.9C63.1 24.8 62.6 24.8 62.3 25Z" fill="#13377D"/>
<path d="M28.4999 24.9C28.4999 24.7 28.4999 24.5 28.4999 24.3C28.0999 24.3 27.6999 24.3 27.3999 24.3C27.4999 24.9 27.7999 25.4 28.0999 25.6C28.2999 25.4 28.3999 25.2 28.4999 24.9Z" fill="#13377D"/>
<path d="M33.5999 22.7C33.4999 22.7 33.4999 22.7 33.5999 22.7C33.4999 22.7 33.4999 22.7 33.4999 22.7C33.4999 22.7 33.4999 22.7 33.3999 22.7C33.2999 22.7 33.2999 22.7 33.1999 22.7C33.0999 22.7 33.0999 22.7 32.9999 22.7C32.8999 22.7 32.7999 22.7 32.6999 22.7C32.4999 22.7 32.3999 22.7 32.1999 22.7C31.2999 22.7 30.4999 22.5 29.6999 22.3C28.7999 22.2 27.9999 22 27.1999 22C27.0999 22 27.0999 22 26.9999 22C26.9999 22 26.9999 22 26.8999 22C26.6999 22 26.4999 22 26.3999 22C25.9999 22 25.6999 22.1 25.4999 22.2C25.3999 22.3 25.1999 22.3 25.0999 22.4C24.7999 22.6 24.5999 22.7 24.3999 22.9C24.4999 23.4 24.7999 24 24.9999 24.4C25.4999 24.1 26.7999 23.5 27.6999 23.5H27.8999C28.4999 23.5 28.9999 23.4 31.4999 23.8C33.6999 24.1 35.2999 23.4 35.7999 23.2C36.0999 23 36.3999 22.8 36.5999 22.6C36.6999 22.5 36.7999 22.4 36.8999 22.3C37.0999 22 37.2999 21.8 37.4999 21.6C36.5999 21.9 35.3999 22.5 33.5999 22.7Z" fill="#13377D"/>
<path d="M19.6001 30.2C19.9001 30.5 20.6001 31.6 22.2001 30.7C23.8001 29.8 24.6001 29.3 24.6001 29.3C24.6001 29.3 24.3001 29.8 24.5001 30.4C24.5001 30.4 24.5001 30.4 24.6001 30.4C24.8001 30 26.2001 28.9 27.9001 28.8C28.0001 28.8 28.0001 28.8 28.1001 28.8C28.0001 28.7 27.9001 28.7 27.8001 28.6C27.5001 28.4 27.2001 28.2 27.0001 28.1C26.8001 28 26.7001 27.9 26.5001 27.8C25.7001 27.9 24.3001 28.5 22.4001 29.7C20.6001 30.7 19.7001 30.2 19.6001 30.2Z" fill="#13377D"/>
<path d="M26.4002 24.6C26.2002 24.7 25.6002 25 25.4002 25.1C25.3002 25.1 25.3002 25.2 25.2002 25.2C25.4002 25.5 25.5002 25.7 25.7002 25.9C26.5002 26.1 27.3002 26.2 28.0002 26.2C28.4002 26.2 28.8002 26.2 29.2002 26.1C29.3002 26.1 29.3002 26.1 29.4002 26.1C29.5002 26.1 29.5002 26.1 29.6002 26.1C30.6002 25.9 31.2002 25.2 31.4002 24.7C31.3002 24.7 31.1002 24.7 31.0002 24.7C30.4002 24.6 29.9002 24.5 29.5002 24.5C29.5002 24.6 29.4002 24.8 29.4002 24.9C29.3002 25.1 29.2002 25.2 29.1002 25.3L29.0002 25.4C28.7002 25.6 28.4002 25.7 28.0002 25.7C27.6002 25.7 27.2002 25.6 26.9002 25.4C26.6002 25.2 26.5002 24.9 26.4002 24.6Z" fill="#13377D"/>
<path d="M20.0999 25.2C18.9999 26.7 20.4999 28.3 20.5999 28.4C20.6999 28.5 20.6999 28.4 20.6999 28.4C20.6999 28.3 21.4999 26 25.9999 27.2C25.2999 26.6 24.2999 25.4 23.6999 23.8C23.0999 23.8 20.9999 24 20.0999 25.2ZM23.7999 25C23.4999 24.8 22.9999 24.8 22.5999 24.9C22.5999 24.5 23.1999 24.4 23.4999 24.4C23.4999 24.4 23.5999 24.8 23.7999 25Z" fill="#13377D"/>
<path d="M37.8998 25.2C37.7998 25.2 37.5998 25.2 37.4998 25.2C36.4998 25.2 35.6998 24.9 34.8998 24.4C34.5998 24.5 33.9998 24.6 33.4998 24.6C32.9998 24.6 32.4998 24.6 32.2998 24.6C32.1998 25 31.8998 25.7 31.1998 26.2C30.4998 26.8 29.5998 26.9 28.7998 26.9C28.3998 26.9 28.0998 26.9 27.8998 26.9H27.7998C27.5998 26.9 27.1998 26.8 26.7998 26.8C27.0998 27 27.2998 27.1 27.4998 27.3C27.6998 27.4 27.9998 27.6 28.2998 27.8C29.8998 28.9 31.0998 30.5 31.2998 31.6C31.3998 32 31.3998 32.4 31.3998 32.4C31.5998 32.3 31.7998 31.9 31.8998 31.5C32.0998 32 32.7998 33.6 32.4998 35.2C32.1998 37.1 31.6998 38 31.1998 38.5C30.9998 38.7 30.7998 38.9 30.6998 39C31.6998 38.5 33.3998 37.4 34.2998 35.4C34.7998 34.3 34.9998 32 34.9998 32V31.3L35.5998 31.6C35.5998 31.6 36.4998 32.1 37.3998 33.4C37.6998 33.9 37.9998 34.4 38.1998 34.9C38.2998 34.5 38.3998 34.1 38.4998 33.6C38.5998 32.4 38.2998 31.2 38.2998 31.2L38.0998 30.4L38.8998 30.7C38.8998 30.7 39.6998 31 40.5998 31.7C41.1998 32.1 41.5998 32.5 41.8998 32.9C41.4998 31.9 41.0998 30.9 40.3998 30C38.2998 26.8 36.9998 26.1 36.9998 26.1L36.7998 26C36.7998 26 36.7998 26 36.8998 26C37.1998 25.7 37.5998 25.4 37.8998 25.2Z" fill="#13377D"/>
</g>
<defs>
<clipPath id="clip0">
<rect width="343" height="96" fill="white"/>
</clipPath>
</defs>
</svg>
